<svg width="74" height="68" viewBox="0 0 74 68" fill="none" xmlns="http://www.w3.org/2000/svg">
<path d="M0.288925 68C0.31834 68 0.362457 68 0.391872 67.9853C0.480114 67.9559 8.9365 64.2057 17.5105 55.0139C19.3489 53.0432 21.1431 50.7931 23.0256 48.3959C28.9965 40.8513 35.7764 32.3067 46.4094 30.6154C46.5417 30.586 46.6447 30.4683 46.6152 30.3213C46.5858 30.1889 46.4535 30.0859 46.3211 30.1154C35.4969 31.8508 28.6583 40.4836 22.6138 48.087C20.7313 50.4695 18.9518 52.705 17.1135 54.6757C8.61296 63.7792 0.244804 67.4853 0.156563 67.5294C0.0242004 67.5882 -0.034626 67.7353 0.0242043 67.8676C0.0977364 67.9412 0.200687 68 0.288925 68Z" fill="#9D432A"/>
<path d="M27.3641 42.4396C27.3641 42.4396 35.2175 22.0561 33.1144 5.27563C19.5107 17.4087 27.3641 42.4396 27.3641 42.4396Z" fill="#9D432A"/>
<path d="M27.364 42.6897C27.467 42.6897 27.5699 42.6308 27.5994 42.5279C27.6729 42.322 35.4528 21.8943 33.3644 5.24621C33.3497 5.15797 33.2909 5.06973 33.2026 5.04032C33.1144 5.01091 33.0114 5.02561 32.9379 5.08444C19.3636 17.2028 27.0258 42.2632 27.114 42.5132C27.1434 42.6161 27.2464 42.6897 27.364 42.6897ZM32.9232 5.79036C34.5704 20.4383 28.7318 37.8511 27.3935 41.6014C26.2463 37.4099 21.3784 16.6145 32.9232 5.79036ZM31.5849 38.557C31.5849 38.557 58.9395 30.8948 72.0579 37.7188C62.2926 47.8517 31.5849 38.557 31.5849 38.557Z" fill="#9D432A"/>
<path d="M56.1305 42.7338C62.5868 42.7338 68.7195 41.5425 72.2491 37.8805C72.308 37.8217 72.3374 37.7335 72.3227 37.6599C72.308 37.5864 72.2638 37.5129 72.1903 37.4687C59.1307 30.6742 31.8055 38.2188 31.5261 38.2923C31.4231 38.3217 31.3349 38.4247 31.3349 38.5423C31.3349 38.66 31.4084 38.7629 31.5114 38.7924C32.3202 39.0424 44.7181 42.7338 56.1305 42.7338ZM71.6314 37.7776C66.5576 42.6896 56.1305 42.6161 48.1889 41.6749C41.159 40.8366 34.8204 39.1894 32.5408 38.557C37.3353 37.3364 59.9837 32.0272 71.6314 37.7776ZM32.7909 36.8952C32.7909 36.8952 52.2773 15.3645 47.3653 1.24596C34.3645 4.27556 32.7909 36.8952 32.7909 36.8952Z" fill="#9D432A"/>
<path d="M32.7909 37.1599C32.8644 37.1599 32.938 37.1305 32.9821 37.0717C33.7762 36.1893 52.5127 15.2762 47.6153 1.17244C47.5712 1.05479 47.4388 0.966547 47.3212 1.01067C41.8208 2.29016 37.6735 8.73172 34.9675 20.1589C32.9674 28.6153 32.5556 36.8069 32.5556 36.8952C32.5556 36.9981 32.6144 37.1011 32.7174 37.1452C32.7174 37.1452 32.7615 37.1599 32.7909 37.1599ZM47.2035 1.55482C49.5566 8.71702 45.527 17.8352 41.7032 24.2327C38.2912 29.9683 34.438 34.6009 33.0997 36.1599C33.4233 31.3213 35.8058 4.555 47.2035 1.55482ZM40.4531 32.1155C40.4531 32.1155 58.366 19.4383 73.308 22.1149C64.6458 36.4246 40.4531 32.1155 40.4531 32.1155Z" fill="#9D432A"/>
<path d="M48.4536 32.9538C56.3805 32.9538 68.0577 31.2772 73.5286 22.2472C73.5728 22.1737 73.5728 22.0855 73.5433 22.0119C73.5139 21.9384 73.4404 21.8796 73.3522 21.8649C58.4689 19.1882 40.4825 31.7772 40.306 31.9096C40.2178 31.9684 40.1884 32.0714 40.2031 32.1743C40.2325 32.2773 40.306 32.3508 40.409 32.3655C40.4972 32.3949 43.8357 32.9538 48.4536 32.9538ZM72.8962 22.3061C65.0428 34.6451 44.9828 32.4979 41.1443 31.9684C44.2033 29.9389 59.7484 20.1883 72.8962 22.3061Z" fill="#9D432A"/>
<path d="M40.4531 32.1155C40.4531 32.1155 65.0575 16.0704 62.3809 6.09922C52.2185 6.21687 40.4531 32.1155 40.4531 32.1155Z" fill="#9D432A"/>
<path d="M40.4531 32.3802C40.4972 32.3802 40.5561 32.3655 40.6002 32.3361C40.659 32.292 46.8359 28.2623 52.6009 23.0414C60.3955 15.9969 63.7633 10.2759 62.6309 6.04037C62.6015 5.92272 62.4986 5.84918 62.3809 5.84918C58.0718 5.8933 53.0274 10.32 47.3947 19.0117C43.218 25.4386 40.2619 31.9537 40.2325 32.0125C40.1884 32.1155 40.2178 32.2331 40.2913 32.3067C40.3355 32.3508 40.3943 32.3802 40.4531 32.3802ZM62.175 6.36392C64.1898 15.0703 45.174 28.6006 41.0855 31.3948C43.1886 26.9975 53.3657 6.761 62.175 6.36392ZM56.2335 49.2194C56.307 49.2194 56.3953 49.19 56.4394 49.1165C56.4982 49.0283 56.5129 48.9253 56.4541 48.8371C55.0716 46.3957 48.8654 43.3367 44.2475 42.2337C34.1145 39.8071 25.3198 44.8074 25.2316 44.8515C25.1581 44.8957 25.114 44.9545 25.0992 45.0427C25.0845 45.1163 25.114 45.1898 25.1581 45.2486C25.2463 45.3516 27.5553 47.6899 40.5266 48.8812C43.718 49.1753 45.2769 48.8518 46.6594 48.5724C48.6301 48.1606 50.3361 47.8223 56.1599 49.2047C56.1894 49.2194 56.2188 49.2194 56.2335 49.2194ZM38.5265 42.0867C40.306 42.0867 42.1885 42.2779 44.1298 42.7338C48.233 43.7191 53.8069 46.3663 55.6452 48.5576C50.2331 47.3223 48.4536 47.6899 46.5858 48.0723C45.174 48.3665 43.718 48.6606 40.6002 48.3812C30.2172 47.4252 26.7758 45.7192 25.8493 45.1163C27.1582 44.4398 32.1879 42.0867 38.5265 42.0867Z" fill="#9D432A"/>
<path d="M41.409 31.7331C41.4973 31.7331 41.5855 31.689 41.6296 31.6154C46.9829 22.7179 62.4103 6.45216 62.5721 6.27568C62.675 6.17273 62.6603 6.01096 62.5574 5.90801C62.4544 5.80507 62.2927 5.81977 62.1897 5.92272C62.0279 6.08449 46.5564 22.3943 41.1737 31.3507C41.1002 31.4684 41.1443 31.6302 41.262 31.7037C41.3061 31.7331 41.3649 31.7331 41.409 31.7331ZM43.9239 31.586C43.968 31.586 44.0121 31.5713 44.0416 31.5566C47.3065 29.8212 73.1315 22.4384 73.3816 22.3649C73.5139 22.3208 73.6022 22.1884 73.558 22.056C73.5139 21.9237 73.3816 21.8354 73.2492 21.8796C72.1903 22.1884 47.1153 29.3506 43.8062 31.1154C43.6886 31.189 43.6298 31.336 43.7033 31.4684C43.7474 31.5419 43.8357 31.586 43.9239 31.586ZM33.7321 34.5274C33.8351 34.5274 33.938 34.4686 33.9674 34.3509C34.8939 31.7625 47.4682 1.65776 47.6006 1.34891C47.6594 1.21655 47.6006 1.06948 47.4682 1.01066C47.3359 0.95183 47.1888 1.01066 47.13 1.14302C46.9976 1.45186 34.4233 31.5713 33.4821 34.1744C33.438 34.3068 33.4968 34.4539 33.6439 34.498C33.6733 34.5274 33.7027 34.5274 33.7321 34.5274ZM46.3211 40.3072C49.6448 40.3072 52.9833 39.9101 55.5717 38.7629C61.6897 36.0422 71.9109 37.9541 72.0138 37.9688C72.1462 37.9835 72.2933 37.91 72.308 37.7629C72.3374 37.6305 72.2491 37.4982 72.1021 37.4687C71.6756 37.3952 61.6161 35.5127 55.3658 38.2923C47.63 41.7337 32.6585 38.1158 32.5114 38.0864C32.3644 38.0423 32.232 38.1306 32.2026 38.2776C32.1732 38.41 32.2467 38.557 32.3938 38.5865C32.8056 38.6747 39.5413 40.3072 46.3211 40.3072ZM27.3935 39.9836C27.5406 39.9836 27.6582 39.8659 27.6435 39.7189C27.4523 30.5271 32.9232 6.3051 32.9821 6.05508C33.0115 5.92272 32.9232 5.77565 32.7909 5.74624C32.6585 5.71682 32.5114 5.80507 32.482 5.93743C32.4232 6.18744 26.9376 30.4536 27.1288 39.7189C27.1435 39.8807 27.2611 39.9836 27.3935 39.9836ZM65.9399 26.7475C65.9397 26.848 65.9595 26.9474 65.9982 27.0402C66.0364 27.133 66.0928 27.2174 66.1639 27.2883C66.2348 27.3594 66.3192 27.4158 66.412 27.454C66.5047 27.4927 66.6042 27.5124 66.7047 27.5123C66.8051 27.5124 66.9046 27.4927 66.9974 27.454C67.0902 27.4158 67.1746 27.3594 67.2455 27.2883C67.3166 27.2174 67.3729 27.133 67.4112 27.0402C67.4498 26.9474 67.4696 26.848 67.4694 26.7475C67.4694 26.646 67.45 26.5485 67.4112 26.4548C67.3729 26.362 67.3166 26.2776 67.2455 26.2067C67.1746 26.1356 67.0902 26.0792 66.9974 26.041C66.9046 26.0024 66.8051 25.9826 66.7047 25.9828C66.6032 25.9828 66.5057 26.0022 66.412 26.041C66.3183 26.0798 66.2355 26.1351 66.1639 26.2067C66.0928 26.2776 66.0364 26.362 65.9982 26.4548C65.9593 26.5485 65.9399 26.646 65.9399 26.7475ZM69.0725 24.8945C69.0723 24.9949 69.0921 25.0944 69.1307 25.1871C69.169 25.28 69.2253 25.3643 69.2965 25.4352C69.3674 25.5064 69.4517 25.5627 69.5446 25.601C69.6373 25.6396 69.7368 25.6594 69.8372 25.6592C69.9377 25.6594 70.0372 25.6396 70.1299 25.601C70.2228 25.5627 70.3071 25.5064 70.378 25.4352C70.4491 25.3643 70.5055 25.28 70.5437 25.1871C70.5824 25.0944 70.6022 24.9949 70.602 24.8945C70.602 24.793 70.5826 24.6955 70.5437 24.6018C70.5055 24.5089 70.4491 24.4246 70.378 24.3537C70.3071 24.2825 70.2228 24.2262 70.1299 24.1879C70.0372 24.1493 69.9377 24.1295 69.8372 24.1297C69.7358 24.1297 69.6382 24.1491 69.5446 24.1879C69.4509 24.2268 69.3681 24.2821 69.2965 24.3537C69.2253 24.4246 69.169 24.5089 69.1307 24.6018C69.0919 24.6955 69.0725 24.793 69.0725 24.8945ZM60.3072 10.1142C60.3071 10.2146 60.3269 10.3141 60.3655 10.4068C60.4037 10.4997 60.4601 10.584 60.5312 10.6549C60.6021 10.7261 60.6865 10.7824 60.7793 10.8207C60.8721 10.8593 60.9715 10.8791 61.072 10.8789C61.1724 10.8791 61.2719 10.8593 61.3647 10.8207C61.4575 10.7824 61.5419 10.7261 61.6128 10.6549C61.6839 10.584 61.7403 10.4997 61.7785 10.4068C61.8171 10.3141 61.8369 10.2146 61.8367 10.1142C61.8367 10.0127 61.8173 9.91517 61.7785 9.82148C61.7403 9.72861 61.6839 9.64427 61.6128 9.57338C61.5419 9.50223 61.4575 9.44589 61.3647 9.40764C61.2719 9.36901 61.1724 9.34921 61.072 9.3494C60.9705 9.3494 60.873 9.36881 60.7793 9.40764C60.6856 9.44646 60.6028 9.50176 60.5312 9.57338C60.4601 9.64427 60.4037 9.72861 60.3655 9.82148C60.3267 9.91517 60.3072 10.0127 60.3072 10.1142ZM57.7188 13.9085C57.7187 14.0089 57.7385 14.1084 57.7771 14.2012C57.8153 14.294 57.8717 14.3784 57.9428 14.4493C58.0137 14.5204 58.0981 14.5768 58.1909 14.615C58.2837 14.6536 58.3832 14.6734 58.4836 14.6732C58.5841 14.6734 58.6835 14.6536 58.7763 14.615C58.8691 14.5768 58.9535 14.5204 59.0244 14.4493C59.0955 14.3784 59.1519 14.294 59.1901 14.2012C59.2287 14.1084 59.2485 14.0089 59.2484 13.9085C59.2484 13.807 59.2289 13.7095 59.1901 13.6158C59.1519 13.523 59.0955 13.4386 59.0244 13.3677C58.9535 13.2966 58.8691 13.2402 58.7763 13.202C58.6835 13.1634 58.5841 13.1436 58.4836 13.1437C58.3821 13.1437 58.2846 13.1632 58.1909 13.202C58.0973 13.2408 58.0145 13.2961 57.9428 13.3677C57.8717 13.4386 57.8153 13.523 57.7771 13.6158C57.7383 13.7095 57.7188 13.807 57.7188 13.9085ZM57.2188 8.56994C57.2186 8.67039 57.2384 8.76988 57.2771 8.8626C57.3153 8.95548 57.3717 9.03981 57.4428 9.11071C57.5137 9.18186 57.598 9.2382 57.6909 9.27645C57.7836 9.31508 57.8831 9.33488 57.9836 9.33469C58.084 9.33488 58.1835 9.31508 58.2762 9.27645C58.3691 9.2382 58.4534 9.18186 58.5243 9.11071C58.5955 9.03981 58.6518 8.95548 58.6901 8.8626C58.7287 8.76988 58.7485 8.67039 58.7483 8.56994C58.7483 8.46846 58.7289 8.37096 58.6901 8.27727C58.6518 8.1844 58.5955 8.10006 58.5243 8.02917C58.4534 7.95802 58.3691 7.90168 58.2762 7.86343C58.1835 7.8248 58.084 7.805 57.9836 7.80519C57.8821 7.80519 57.7846 7.8246 57.6909 7.86343C57.5972 7.90225 57.5144 7.95755 57.4428 8.02917C57.3717 8.10006 57.3153 8.1844 57.2771 8.27727C57.2382 8.37096 57.2188 8.46846 57.2188 8.56994ZM46.2623 6.24627C46.2623 6.34775 46.2817 6.44525 46.3205 6.53893C46.3588 6.63181 46.4151 6.71614 46.4863 6.78704C46.5572 6.85819 46.6415 6.91453 46.7344 6.95278C46.8271 6.99141 46.9266 7.01121 47.027 7.01102C47.1275 7.01121 47.227 6.99141 47.3197 6.95278C47.4126 6.91453 47.4969 6.85819 47.5678 6.78704C47.6389 6.71614 47.6953 6.63181 47.7335 6.53893C47.7722 6.44621 47.792 6.34672 47.7918 6.24627C47.7918 6.14479 47.7724 6.04729 47.7335 5.9536C47.6953 5.86073 47.6389 5.77639 47.5678 5.7055C47.4969 5.63435 47.4126 5.57801 47.3197 5.53975C47.227 5.50113 47.1275 5.48133 47.027 5.48152C46.9256 5.48152 46.828 5.50093 46.7344 5.53975C46.6407 5.57858 46.5579 5.63388 46.4863 5.7055C46.4151 5.77639 46.3588 5.86073 46.3205 5.9536C46.2817 6.04729 46.2623 6.14479 46.2623 6.24627ZM43.218 4.39321C43.2178 4.49367 43.2376 4.59315 43.2762 4.68588C43.3145 4.77875 43.3708 4.86309 43.442 4.93398C43.5128 5.00514 43.5972 5.06148 43.6901 5.09973C43.7828 5.13836 43.8823 5.15815 43.9827 5.15797C44.0832 5.15815 44.1827 5.13836 44.2754 5.09973C44.3683 5.06148 44.4526 5.00514 44.5235 4.93398C44.5946 4.86309 44.651 4.77875 44.6892 4.68588C44.7279 4.59315 44.7477 4.49367 44.7475 4.39321C44.7475 4.29174 44.7281 4.19423 44.6892 4.10055C44.651 4.00768 44.5946 3.92334 44.5235 3.85245C44.4526 3.78129 44.3683 3.72495 44.2754 3.6867C44.1827 3.64807 44.0832 3.62828 43.9827 3.62846C43.8812 3.62846 43.7837 3.64788 43.6901 3.6867C43.5964 3.72553 43.5136 3.78082 43.442 3.85245C43.3708 3.92334 43.3145 4.00768 43.2762 4.10055C43.2374 4.19423 43.218 4.29174 43.218 4.39321ZM31.9673 12.7908C31.9673 12.8923 31.9867 12.9898 32.0255 13.0834C32.0638 13.1763 32.1201 13.2607 32.1913 13.3315C32.2622 13.4027 32.3465 13.459 32.4394 13.4973C32.5321 13.5359 32.6316 13.5557 32.732 13.5555C32.8335 13.5555 32.931 13.5361 33.0247 13.4973C33.1176 13.459 33.2019 13.4027 33.2728 13.3315C33.344 13.2607 33.4003 13.1763 33.4386 13.0834C33.4772 12.9907 33.497 12.8912 33.4968 12.7908C33.4968 12.6893 33.4774 12.5918 33.4386 12.4981C33.4003 12.4052 33.344 12.3209 33.2728 12.25C33.2019 12.1789 33.1176 12.1225 33.0247 12.0843C32.932 12.0456 32.8325 12.0258 32.732 12.026C32.6306 12.026 32.5331 12.0454 32.4394 12.0843C32.3457 12.1231 32.2629 12.1784 32.1913 12.25C32.1201 12.3209 32.0638 12.4052 32.0255 12.4981C31.9867 12.5918 31.9673 12.6893 31.9673 12.7908ZM40.306 9.06997C40.306 9.17145 40.3254 9.26895 40.3643 9.36263C40.4031 9.45632 40.4584 9.53911 40.53 9.61074C40.6009 9.68189 40.6852 9.73823 40.7781 9.77648C40.8708 9.81511 40.9703 9.83491 41.0708 9.83472C41.1712 9.83491 41.2707 9.81511 41.3634 9.77648C41.4563 9.73823 41.5407 9.68189 41.6116 9.61074C41.6827 9.53984 41.739 9.45551 41.7773 9.36263C41.8159 9.26991 41.8357 9.17042 41.8355 9.06997C41.8355 8.96849 41.8161 8.87099 41.7773 8.7773C41.739 8.68443 41.6827 8.60009 41.6116 8.5292C41.5407 8.45805 41.4563 8.40171 41.3634 8.36346C41.2707 8.32483 41.1712 8.30503 41.0708 8.30522C40.9693 8.30522 40.8718 8.32463 40.7781 8.36346C40.6844 8.40228 40.6016 8.45758 40.53 8.5292C40.4589 8.60009 40.4025 8.68443 40.3643 8.7773C40.3254 8.87099 40.306 8.96849 40.306 9.06997ZM38.7618 14.2173C38.7618 14.3188 38.7812 14.4163 38.8201 14.51C38.8589 14.6037 38.9142 14.6865 38.9858 14.7581C39.0567 14.8293 39.141 14.8856 39.2339 14.9239C39.3266 14.9625 39.4261 14.9823 39.5266 14.9821C39.627 14.9823 39.7265 14.9625 39.8192 14.9239C39.9121 14.8856 39.9964 14.8293 40.0673 14.7581C40.1385 14.6872 40.1948 14.6029 40.2331 14.51C40.2717 14.4173 40.2915 14.3178 40.2913 14.2173C40.2913 14.1159 40.2719 14.0184 40.2331 13.9247C40.1948 13.8318 40.1385 13.7475 40.0673 13.6766C39.9964 13.6054 39.9121 13.5491 39.8192 13.5108C39.7265 13.4722 39.627 13.4524 39.5266 13.4526C39.4251 13.4526 39.3276 13.472 39.2339 13.5108C39.1402 13.5497 39.0574 13.6049 38.9858 13.6766C38.9147 13.7475 38.8583 13.8318 38.8201 13.9247C38.7812 14.0184 38.7618 14.1159 38.7618 14.2173ZM36.5999 19.5559C36.5997 19.6563 36.6195 19.7558 36.6582 19.8486C36.6964 19.9414 36.7528 20.0258 36.8239 20.0967C36.8948 20.1678 36.9791 20.2242 37.072 20.2624C37.1647 20.301 37.2642 20.3208 37.3647 20.3206C37.4651 20.3208 37.5646 20.301 37.6573 20.2624C37.7502 20.2242 37.8346 20.1678 37.9054 20.0967C37.9766 20.0258 38.0329 19.9414 38.0712 19.8486C38.1098 19.7558 38.1296 19.6563 38.1294 19.5559C38.1294 19.4544 38.11 19.3569 38.0712 19.2632C38.0329 19.1704 37.9766 19.086 37.9054 19.0151C37.8346 18.944 37.7502 18.8876 37.6573 18.8494C37.5646 18.8108 37.4651 18.791 37.3647 18.7911C37.2632 18.7911 37.1657 18.8106 37.072 18.8494C36.9783 18.8882 36.8955 18.9435 36.8239 19.0151C36.7528 19.086 36.6964 19.1704 36.6582 19.2632C36.6193 19.3569 36.5999 19.4544 36.5999 19.5559ZM35.0263 24.3944C35.0261 24.4949 35.0459 24.5944 35.0845 24.6871C35.1228 24.78 35.1791 24.8643 35.2503 24.9352C35.3212 25.0063 35.4055 25.0627 35.4984 25.1009C35.5911 25.1396 35.6906 25.1594 35.7911 25.1592C35.8915 25.1594 35.991 25.1396 36.0837 25.1009C36.1766 25.0627 36.2609 25.0063 36.3318 24.9352C36.403 24.8643 36.4593 24.78 36.4976 24.6871C36.5362 24.5944 36.556 24.4949 36.5558 24.3944C36.5558 24.2929 36.5364 24.1954 36.4976 24.1018C36.4593 24.0089 36.403 23.9246 36.3318 23.8537C36.2609 23.7825 36.1766 23.7262 36.0837 23.6879C35.991 23.6493 35.8915 23.6295 35.7911 23.6297C35.6896 23.6297 35.5921 23.6491 35.4984 23.6879C35.4047 23.7267 35.3219 23.782 35.2503 23.8537C35.1791 23.9246 35.1228 24.0089 35.0845 24.1018C35.0457 24.1954 35.0263 24.2929 35.0263 24.3944ZM34.0115 27.6005C34.0115 27.702 34.0309 27.7995 34.0698 27.8932C34.108 27.986 34.1644 28.0704 34.2355 28.1413C34.3064 28.2124 34.3908 28.2688 34.4836 28.307C34.5764 28.3456 34.6758 28.3654 34.7763 28.3653C34.8767 28.3654 34.9762 28.3456 35.069 28.307C35.1618 28.2688 35.2462 28.2124 35.3171 28.1413C35.3882 28.0704 35.4445 27.986 35.4828 27.8932C35.5214 27.8004 35.5412 27.701 35.541 27.6005C35.541 27.499 35.5216 27.4015 35.4828 27.3078C35.4445 27.215 35.3882 27.1306 35.3171 27.0597C35.2462 26.9886 35.1618 26.9322 35.069 26.894C34.9762 26.8554 34.8767 26.8356 34.7763 26.8357C34.6748 26.8357 34.5773 26.8552 34.4836 26.894C34.3899 26.9328 34.3071 26.9881 34.2355 27.0597C34.1644 27.1306 34.108 27.215 34.0698 27.3078C34.0309 27.4015 34.0115 27.499 34.0115 27.6005Z" fill="#EFE9CE"/>
<path d="M30.9231 17.8352C30.9231 17.9367 30.9425 18.0342 30.9813 18.1279C31.0196 18.2207 31.0759 18.3051 31.1471 18.376C31.218 18.4471 31.3023 18.5035 31.3952 18.5417C31.4879 18.5804 31.5874 18.6002 31.6878 18.6C31.7883 18.6002 31.8878 18.5804 31.9805 18.5417C32.0734 18.5035 32.1577 18.4471 32.2286 18.376C32.2998 18.3051 32.3561 18.2207 32.3944 18.1279C32.433 18.0351 32.4528 17.9357 32.4526 17.8352C32.4526 17.7337 32.4332 17.6362 32.3944 17.5425C32.3561 17.4497 32.2998 17.3653 32.2286 17.2944C32.1577 17.2233 32.0734 17.1669 31.9805 17.1287C31.8878 17.0901 31.7883 17.0703 31.6878 17.0705C31.5864 17.0705 31.4889 17.0899 31.3952 17.1287C31.3015 17.1675 31.2187 17.2228 31.1471 17.2944C31.0759 17.3653 31.0196 17.4497 30.9813 17.5425C30.9425 17.6362 30.9231 17.7337 30.9231 17.8352ZM30.2319 23.512C30.2317 23.6125 30.2515 23.712 30.2901 23.8047C30.3289 23.8984 30.3842 23.9812 30.4559 24.0528C30.5268 24.1239 30.6111 24.1803 30.704 24.2185C30.7967 24.2572 30.8962 24.277 30.9966 24.2768C31.0971 24.277 31.1966 24.2572 31.2893 24.2185C31.3822 24.1803 31.4665 24.1239 31.5374 24.0528C31.6085 23.9819 31.6649 23.8976 31.7031 23.8047C31.7418 23.712 31.7616 23.6125 31.7614 23.512C31.7614 23.4106 31.742 23.313 31.7031 23.2194C31.6649 23.1265 31.6085 23.0422 31.5374 22.9713C31.4665 22.9001 31.3822 22.8438 31.2893 22.8055C31.1966 22.7669 31.0971 22.7471 30.9966 22.7473C30.8952 22.7473 30.7976 22.7667 30.704 22.8055C30.6103 22.8443 30.5275 22.8996 30.4559 22.9713C30.3847 23.0422 30.3284 23.1265 30.2901 23.2194C30.2513 23.313 30.2319 23.4106 30.2319 23.512ZM29.5112 28.277C29.5111 28.3775 29.5309 28.477 29.5695 28.5697C29.6077 28.6626 29.6641 28.7469 29.7352 28.8178C29.8061 28.8889 29.8905 28.9453 29.9833 28.9835C30.0761 29.0222 30.1755 29.042 30.276 29.0418C30.3764 29.042 30.4759 29.0222 30.5687 28.9835C30.6615 28.9453 30.7459 28.8889 30.8168 28.8178C30.8879 28.7469 30.9443 28.6626 30.9825 28.5697C31.0211 28.477 31.0409 28.3775 31.0407 28.277C31.0407 28.1755 31.0213 28.078 30.9825 27.9844C30.9443 27.8915 30.8879 27.8071 30.8168 27.7363C30.7459 27.6651 30.6615 27.6088 30.5687 27.5705C30.4759 27.5319 30.3764 27.5121 30.276 27.5123C30.1745 27.5123 30.077 27.5317 29.9833 27.5705C29.8896 27.6093 29.8069 27.6646 29.7352 27.7363C29.6641 27.8071 29.6077 27.8915 29.5695 27.9844C29.5307 28.078 29.5112 28.1755 29.5112 28.277ZM28.4376 12.0849C28.4375 12.1853 28.4573 12.2848 28.4959 12.3775C28.5347 12.4712 28.59 12.554 28.6616 12.6256C28.7325 12.6968 28.8169 12.7531 28.9097 12.7914C29.0025 12.83 29.1019 12.8498 29.2024 12.8496C29.3039 12.8496 29.4014 12.8302 29.4951 12.7914C29.5879 12.7531 29.6723 12.6968 29.7432 12.6256C29.8143 12.5547 29.8707 12.4704 29.9089 12.3775C29.9475 12.2848 29.9673 12.1853 29.9672 12.0849C29.9672 11.9834 29.9477 11.8859 29.9089 11.7922C29.8707 11.6993 29.8143 11.615 29.7432 11.5441C29.6723 11.4729 29.5879 11.4166 29.4951 11.3784C29.4023 11.3397 29.3029 11.3199 29.2024 11.3201C29.1009 11.3201 29.0034 11.3395 28.9097 11.3784C28.8161 11.4172 28.7333 11.4725 28.6616 11.5441C28.5905 11.615 28.5341 11.6993 28.4959 11.7922C28.4571 11.8859 28.4376 11.9834 28.4376 12.0849ZM27.2023 16.8204C27.2023 16.9219 27.2217 17.0194 27.2605 17.1131C27.2988 17.206 27.3551 17.2903 27.4263 17.3612C27.4972 17.4324 27.5815 17.4887 27.6744 17.527C27.7671 17.5656 27.8666 17.5854 27.967 17.5852C28.0675 17.5854 28.167 17.5656 28.2597 17.527C28.3526 17.4887 28.4369 17.4324 28.5078 17.3612C28.579 17.2903 28.6353 17.206 28.6735 17.1131C28.7122 17.0204 28.732 16.9209 28.7318 16.8204C28.7318 16.719 28.7124 16.6215 28.6735 16.5278C28.6353 16.4349 28.579 16.3506 28.5078 16.2797C28.4369 16.2085 28.3526 16.1522 28.2597 16.1139C28.167 16.0753 28.0675 16.0555 27.967 16.0557C27.8656 16.0557 27.7681 16.0751 27.6744 16.1139C27.5807 16.1528 27.4979 16.2081 27.4263 16.2797C27.3551 16.3506 27.2988 16.4349 27.2605 16.5278C27.2217 16.6215 27.2023 16.719 27.2023 16.8204ZM26.5111 22.4973C26.5111 22.5987 26.5305 22.6962 26.5693 22.7899C26.6081 22.8836 26.6634 22.9664 26.735 23.038C26.8059 23.1092 26.8903 23.1655 26.9831 23.2038C27.0759 23.2424 27.1754 23.2622 27.2758 23.262C27.3763 23.2622 27.4758 23.2424 27.5685 23.2038C27.6614 23.1655 27.7457 23.1092 27.8166 23.038C27.8877 22.9671 27.9441 22.8828 27.9823 22.7899C28.021 22.6972 28.0408 22.5977 28.0406 22.4973C28.0406 22.3958 28.0212 22.2983 27.9823 22.2046C27.9441 22.1117 27.8877 22.0274 27.8166 21.9565C27.7457 21.8853 27.6614 21.829 27.5685 21.7907C27.4758 21.7521 27.3763 21.7323 27.2758 21.7325C27.1743 21.7325 27.0768 21.7519 26.9831 21.7907C26.8895 21.8296 26.8067 21.8849 26.735 21.9565C26.6639 22.0274 26.6076 22.1117 26.5693 22.2046C26.5305 22.2983 26.5111 22.3958 26.5111 22.4973ZM25.7757 27.2623C25.7757 27.3637 25.7951 27.4612 25.834 27.5549C25.8728 27.6486 25.9281 27.7314 25.9997 27.803C26.0706 27.8742 26.1549 27.9305 26.2478 27.9688C26.3405 28.0074 26.44 28.0272 26.5405 28.027C26.6409 28.0272 26.7404 28.0074 26.8331 27.9688C26.926 27.9305 27.0104 27.8742 27.0812 27.803C27.1524 27.7321 27.2087 27.6478 27.247 27.5549C27.2856 27.4622 27.3054 27.3627 27.3052 27.2623C27.3052 27.1608 27.2858 27.0633 27.247 26.9696C27.2087 26.8767 27.1524 26.7924 27.0812 26.7215C27.0104 26.6503 26.926 26.594 26.8331 26.5557C26.7404 26.5171 26.6409 26.4973 26.5405 26.4975C26.439 26.4975 26.3415 26.5169 26.2478 26.5557C26.1541 26.5946 26.0713 26.6499 25.9997 26.7215C25.9281 26.7933 25.8728 26.8759 25.834 26.9696C25.7951 27.0633 25.7757 27.1608 25.7757 27.2623ZM28.0847 34.3803C28.0845 34.4808 28.1043 34.5803 28.1429 34.673C28.1818 34.7667 28.237 34.8495 28.3087 34.9211C28.3796 34.9923 28.4639 35.0486 28.5568 35.0868C28.6495 35.1255 28.749 35.1453 28.8494 35.1451C28.9509 35.1451 29.0484 35.1257 29.1421 35.0868C29.235 35.0486 29.3193 34.9923 29.3902 34.9211C29.4614 34.8502 29.5177 34.7659 29.556 34.673C29.5946 34.5803 29.6144 34.4808 29.6142 34.3803C29.6142 34.2789 29.5948 34.1813 29.556 34.0877C29.5177 33.9948 29.4614 33.9105 29.3902 33.8396C29.3193 33.7684 29.235 33.7121 29.1421 33.6738C29.0494 33.6352 28.9499 33.6154 28.8494 33.6156C28.748 33.6156 28.6505 33.635 28.5568 33.6738C28.4631 33.7126 28.3803 33.7679 28.3087 33.8396C28.2375 33.9105 28.1812 33.9948 28.1429 34.0877C28.1041 34.1813 28.0847 34.2789 28.0847 34.3803ZM25.6434 31.8949C25.6434 31.9964 25.6628 32.0939 25.7016 32.1876C25.7404 32.2812 25.7957 32.364 25.8673 32.4357C25.9382 32.5068 26.0226 32.5631 26.1154 32.6014C26.2082 32.64 26.3077 32.6598 26.4081 32.6596C26.5096 32.6596 26.6071 32.6402 26.7008 32.6014C26.7937 32.5632 26.878 32.5068 26.9489 32.4357C27.02 32.3648 27.0764 32.2804 27.1146 32.1876C27.1533 32.0948 27.1731 31.9953 27.1729 31.8949C27.1729 31.7934 27.1535 31.6959 27.1146 31.6022C27.0764 31.5093 27.02 31.425 26.9489 31.3541C26.878 31.283 26.7937 31.2266 26.7008 31.1884C26.6081 31.1497 26.5086 31.13 26.4081 31.1301C26.3066 31.1301 26.2091 31.1495 26.1154 31.1884C26.0218 31.2272 25.939 31.2825 25.8673 31.3541C25.7962 31.425 25.7399 31.5093 25.7016 31.6022C25.6628 31.6959 25.6434 31.7934 25.6434 31.8949ZM45.321 11.0701C45.321 11.1716 45.3404 11.2691 45.3793 11.3628C45.4175 11.4556 45.4739 11.54 45.545 11.6109C45.6159 11.682 45.7002 11.7384 45.7931 11.7766C45.8858 11.8152 45.9853 11.835 46.0858 11.8348C46.1862 11.835 46.2857 11.8152 46.3784 11.7766C46.4713 11.7384 46.5557 11.682 46.6265 11.6109C46.6977 11.54 46.754 11.4556 46.7923 11.3628C46.8309 11.27 46.8507 11.1705 46.8505 11.0701C46.8505 10.9686 46.8311 10.8711 46.7923 10.7774C46.754 10.6846 46.6977 10.6002 46.6265 10.5293C46.5557 10.4582 46.4713 10.4018 46.3784 10.3636C46.2857 10.325 46.1862 10.3052 46.0858 10.3053C45.9843 10.3053 45.8868 10.3248 45.7931 10.3636C45.6994 10.4024 45.6166 10.4577 45.545 10.5293C45.4739 10.6002 45.4175 10.6846 45.3793 10.7774C45.3404 10.8711 45.321 10.9686 45.321 11.0701ZM43.3209 16.0851C43.3207 16.1856 43.3405 16.285 43.3791 16.3778C43.4174 16.4706 43.4737 16.555 43.5449 16.6259C43.6158 16.697 43.7001 16.7534 43.793 16.7916C43.8857 16.8302 43.9852 16.85 44.0857 16.8499C44.1861 16.85 44.2856 16.8302 44.3783 16.7916C44.4712 16.7534 44.5555 16.697 44.6264 16.6259C44.6976 16.555 44.7539 16.4706 44.7922 16.3778C44.8308 16.285 44.8506 16.1856 44.8504 16.0851C44.8504 15.9836 44.831 15.8861 44.7922 15.7924C44.7539 15.6996 44.6976 15.6152 44.6264 15.5443C44.5555 15.4732 44.4712 15.4168 44.3783 15.3786C44.2856 15.34 44.1861 15.3202 44.0857 15.3204C43.9842 15.3204 43.8867 15.3398 43.793 15.3786C43.6993 15.4174 43.6165 15.4727 43.5449 15.5443C43.4737 15.6152 43.4174 15.6996 43.3791 15.7924C43.3403 15.8861 43.3209 15.9836 43.3209 16.0851ZM41.1002 21.0119C41.1 21.1123 41.1198 21.2118 41.1584 21.3045C41.1967 21.3974 41.253 21.4817 41.3242 21.5526C41.3951 21.6238 41.4794 21.6801 41.5723 21.7184C41.666 21.7572 41.7635 21.7766 41.8649 21.7766C41.9654 21.7768 42.0649 21.757 42.1576 21.7184C42.2505 21.6801 42.3348 21.6238 42.4057 21.5526C42.4769 21.4817 42.5332 21.3974 42.5714 21.3045C42.6101 21.2118 42.6299 21.1123 42.6297 21.0119C42.6297 20.9104 42.6103 20.8129 42.5714 20.7192C42.5332 20.6263 42.4769 20.542 42.4057 20.4711C42.3348 20.4 42.2505 20.3436 42.1576 20.3054C42.0649 20.2667 41.9654 20.2469 41.8649 20.2471C41.7635 20.2471 41.666 20.2665 41.5723 20.3054C41.4786 20.3442 41.3958 20.3995 41.3242 20.4711C41.253 20.542 41.1967 20.6263 41.1584 20.7192C41.1196 20.8129 41.1002 20.9104 41.1002 21.0119ZM38.5412 25.6151C38.5412 25.7166 38.5606 25.8141 38.5994 25.9078C38.6377 26.0006 38.694 26.085 38.7652 26.1559C38.8361 26.227 38.9204 26.2834 39.0133 26.3216C39.106 26.3602 39.2055 26.38 39.306 26.3798C39.4074 26.3798 39.5049 26.3604 39.5986 26.3216C39.6915 26.2834 39.7758 26.227 39.8467 26.1559C39.9179 26.085 39.9742 26.0006 40.0125 25.9078C40.0511 25.815 40.0709 25.7155 40.0707 25.6151C40.0707 25.5136 40.0513 25.4161 40.0125 25.3224C39.9742 25.2296 39.9179 25.1452 39.8467 25.0743C39.7758 25.0032 39.6915 24.9468 39.5986 24.9086C39.5059 24.87 39.4064 24.8502 39.306 24.8503C39.2045 24.8503 39.107 24.8698 39.0133 24.9086C38.9196 24.9474 38.8368 25.0027 38.7652 25.0743C38.694 25.1452 38.6377 25.2296 38.5994 25.3224C38.5606 25.4161 38.5412 25.5136 38.5412 25.6151ZM35.7322 30.4683C35.732 30.5688 35.7518 30.6683 35.7904 30.761C35.8287 30.8539 35.885 30.9382 35.9562 31.0091C36.0271 31.0802 36.1114 31.1366 36.2043 31.1748C36.297 31.2135 36.3965 31.2333 36.497 31.2331C36.5974 31.2333 36.6969 31.2135 36.7896 31.1748C36.8825 31.1366 36.9668 31.0802 37.0377 31.0091C37.1089 30.9382 37.1652 30.8539 37.2035 30.761C37.2421 30.6683 37.2619 30.5688 37.2617 30.4683C37.2617 30.3669 37.2423 30.2693 37.2035 30.1757C37.1652 30.0828 37.1089 29.9985 37.0377 29.9276C36.9668 29.8564 36.8825 29.8001 36.7896 29.7618C36.6969 29.7232 36.5974 29.7034 36.497 29.7036C36.3955 29.7036 36.298 29.723 36.2043 29.7618C36.1106 29.8006 36.0278 29.8559 35.9562 29.9276C35.885 29.9985 35.8287 30.0828 35.7904 30.1757C35.7516 30.2693 35.7322 30.3669 35.7322 30.4683ZM53.7039 11.8937C53.7039 11.9952 53.7233 12.0927 53.7621 12.1863C53.8004 12.2792 53.8567 12.3636 53.9279 12.4344C53.9988 12.5056 54.0831 12.5619 54.176 12.6002C54.2687 12.6388 54.3682 12.6586 54.4686 12.6584C54.5691 12.6586 54.6686 12.6388 54.7613 12.6002C54.8542 12.5619 54.9385 12.5056 55.0094 12.4344C55.0806 12.3636 55.1369 12.2792 55.1751 12.1863C55.2138 12.0936 55.2336 11.9941 55.2334 11.8937C55.2334 11.7922 55.214 11.6947 55.1751 11.601C55.1369 11.5081 55.0806 11.4238 55.0094 11.3529C54.9385 11.2818 54.8542 11.2254 54.7613 11.1872C54.6686 11.1485 54.5691 11.1287 54.4686 11.1289C54.3672 11.1289 54.2697 11.1483 54.176 11.1872C54.0823 11.226 53.9995 11.2813 53.9279 11.3529C53.8567 11.4238 53.8004 11.5081 53.7621 11.601C53.7233 11.6947 53.7039 11.7922 53.7039 11.8937ZM50.7184 15.5557C50.7182 15.6561 50.738 15.7556 50.7766 15.8483C50.8149 15.9412 50.8712 16.0255 50.9424 16.0964C51.0133 16.1676 51.0976 16.2239 51.1905 16.2622C51.2832 16.3008 51.3827 16.3206 51.4832 16.3204C51.5836 16.3206 51.6831 16.3008 51.7758 16.2622C51.8687 16.2239 51.953 16.1676 52.0239 16.0964C52.0951 16.0255 52.1514 15.9412 52.1897 15.8483C52.2283 15.7556 52.2481 15.6561 52.2479 15.5557C52.2479 15.4542 52.2285 15.3567 52.1897 15.263C52.1514 15.1701 52.0951 15.0858 52.0239 15.0149C51.953 14.9437 51.8687 14.8874 51.7758 14.8491C51.6831 14.8105 51.5836 14.7907 51.4832 14.7909C51.3817 14.7909 51.2842 14.8103 51.1905 14.8491C51.0968 14.888 51.014 14.9433 50.9424 15.0149C50.8712 15.0858 50.8149 15.1701 50.7766 15.263C50.7378 15.3567 50.7184 15.4542 50.7184 15.5557ZM47.983 18.9676C47.983 19.0691 48.0024 19.1666 48.0412 19.2603C48.0794 19.3532 48.1358 19.4375 48.2069 19.5084C48.2778 19.5796 48.3622 19.6359 48.455 19.6741C48.5478 19.7128 48.6473 19.7326 48.7477 19.7324C48.8482 19.7326 48.9476 19.7128 49.0404 19.6741C49.1332 19.6359 49.2176 19.5796 49.2885 19.5084C49.3596 19.4375 49.416 19.3532 49.4542 19.2603C49.4928 19.1676 49.5126 19.0681 49.5125 18.9676C49.5125 18.8662 49.493 18.7687 49.4542 18.675C49.416 18.5821 49.3596 18.4978 49.2885 18.4269C49.2176 18.3557 49.1332 18.2994 49.0404 18.2611C48.9476 18.2225 48.8482 18.2027 48.7477 18.2029C48.6462 18.2029 48.5487 18.2223 48.455 18.2611C48.3614 18.2999 48.2786 18.3552 48.2069 18.4269C48.1358 18.4978 48.0794 18.5821 48.0412 18.675C48.0024 18.7687 47.983 18.8662 47.983 18.9676ZM45.8211 22.1296C45.8209 22.23 45.8407 22.3295 45.8793 22.4223C45.9175 22.5151 45.9739 22.5995 46.045 22.6704C46.1159 22.7415 46.2003 22.7979 46.2931 22.8361C46.3859 22.8747 46.4854 22.8945 46.5858 22.8943C46.6863 22.8945 46.7857 22.8747 46.8785 22.8361C46.9713 22.7979 47.0557 22.7415 47.1266 22.6704C47.1977 22.5995 47.2541 22.5151 47.2923 22.4223C47.3309 22.3295 47.3507 22.23 47.3506 22.1296C47.3506 22.0281 47.3311 21.9306 47.2923 21.8369C47.2541 21.7441 47.1977 21.6597 47.1266 21.5888C47.0557 21.5177 46.9713 21.4613 46.8785 21.4231C46.7857 21.3844 46.6863 21.3647 46.5858 21.3648C46.4843 21.3648 46.3868 21.3843 46.2931 21.4231C46.1995 21.4619 46.1167 21.5172 46.045 21.5888C45.9739 21.6597 45.9175 21.7441 45.8793 21.8369C45.8405 21.9306 45.8211 22.0281 45.8211 22.1296ZM54.351 17.7029C54.3508 17.8033 54.3706 17.9028 54.4092 17.9955C54.4475 18.0884 54.5038 18.1727 54.575 18.2436C54.6459 18.3148 54.7302 18.3711 54.8231 18.4094C54.9158 18.448 55.0153 18.4678 55.1157 18.4676C55.2162 18.4678 55.3157 18.448 55.4084 18.4094C55.5013 18.3711 55.5856 18.3148 55.6565 18.2436C55.7277 18.1727 55.784 18.0884 55.8222 17.9955C55.8609 17.9028 55.8807 17.8033 55.8805 17.7029C55.8805 17.6014 55.8611 17.5039 55.8222 17.4102C55.784 17.3173 55.7277 17.233 55.6565 17.1621C55.5856 17.0909 55.5013 17.0346 55.4084 16.9963C55.3157 16.9577 55.2162 16.9379 55.1157 16.9381C55.0143 16.9381 54.9168 16.9575 54.8231 16.9963C54.7294 17.0352 54.6466 17.0905 54.575 17.1621C54.5038 17.233 54.4475 17.3173 54.4092 17.4102C54.3704 17.5039 54.351 17.6014 54.351 17.7029ZM51.5273 20.7324C51.5271 20.8329 51.5469 20.9324 51.5855 21.0251C51.6243 21.1188 51.6796 21.2016 51.7513 21.2732C51.8222 21.3444 51.9065 21.4007 51.9994 21.439C52.0921 21.4776 52.1916 21.4974 52.292 21.4972C52.3925 21.4974 52.492 21.4776 52.5847 21.439C52.6776 21.4007 52.7619 21.3444 52.8328 21.2732C52.904 21.2023 52.9603 21.118 52.9985 21.0251C53.0372 20.9324 53.057 20.8329 53.0568 20.7324C53.0568 20.631 53.0374 20.5335 52.9985 20.4398C52.9603 20.3469 52.904 20.2626 52.8328 20.1917C52.7619 20.1205 52.6776 20.0642 52.5847 20.0259C52.492 19.9873 52.3925 19.9675 52.292 19.9677C52.1906 19.9677 52.0931 19.9871 51.9994 20.0259C51.9057 20.0648 51.8229 20.1201 51.7513 20.1917C51.6795 20.2634 51.6243 20.3461 51.5855 20.4398C51.5467 20.5335 51.5273 20.631 51.5273 20.7324ZM48.4094 23.9238C48.4093 24.0243 48.4291 24.1238 48.4677 24.2165C48.5059 24.3094 48.5623 24.3937 48.6334 24.4646C48.7043 24.5357 48.7887 24.5921 48.8815 24.6303C48.9743 24.669 49.0737 24.6888 49.1742 24.6886C49.2757 24.6886 49.3732 24.6692 49.4669 24.6303C49.5597 24.5921 49.6441 24.5357 49.715 24.4646C49.7861 24.3937 49.8425 24.3094 49.8807 24.2165C49.9193 24.1238 49.9391 24.0243 49.939 23.9238C49.939 23.8223 49.9195 23.7248 49.8807 23.6312C49.8425 23.5383 49.7861 23.4539 49.715 23.383C49.6441 23.3119 49.5597 23.2556 49.4669 23.2173C49.3741 23.1787 49.2747 23.1589 49.1742 23.1591C49.0727 23.1591 48.9752 23.1785 48.8815 23.2173C48.7879 23.2561 48.7051 23.3114 48.6334 23.383C48.5623 23.4539 48.5059 23.5383 48.4677 23.6312C48.4289 23.7248 48.4094 23.8223 48.4094 23.9238ZM45.4387 26.7769C45.4385 26.8774 45.4583 26.9769 45.4969 27.0696C45.5352 27.1625 45.5915 27.2468 45.6627 27.3177C45.7336 27.3888 45.8179 27.4452 45.9108 27.4834C46.0044 27.5223 46.102 27.5417 46.2034 27.5417C46.3049 27.5417 46.4024 27.5223 46.4961 27.4834C46.589 27.4452 46.6733 27.3888 46.7442 27.3177C46.8154 27.2468 46.8717 27.1625 46.9099 27.0696C46.9486 26.9769 46.9684 26.8774 46.9682 26.7769C46.9682 26.6755 46.9488 26.5779 46.9099 26.4843C46.8717 26.3914 46.8154 26.3071 46.7442 26.2362C46.6733 26.165 46.589 26.1087 46.4961 26.0704C46.4034 26.0318 46.3039 26.012 46.2034 26.0122C46.102 26.0122 46.0044 26.0316 45.9108 26.0704C45.8171 26.1092 45.7343 26.1645 45.6627 26.2362C45.5915 26.3071 45.5352 26.3914 45.4969 26.4843C45.4581 26.5779 45.4387 26.6755 45.4387 26.7769ZM64.0575 22.8208C64.0573 22.9213 64.0771 23.0207 64.1157 23.1135C64.1539 23.2063 64.2103 23.2907 64.2814 23.3616C64.3523 23.4327 64.4367 23.4891 64.5295 23.5273C64.6223 23.566 64.7218 23.5857 64.8222 23.5856C64.9227 23.5857 65.0221 23.566 65.1149 23.5273C65.2077 23.4891 65.2921 23.4327 65.363 23.3616C65.4341 23.2907 65.4905 23.2063 65.5287 23.1135C65.5673 23.0207 65.5871 22.9213 65.587 22.8208C65.587 22.7193 65.5675 22.6218 65.5287 22.5281C65.4905 22.4353 65.4341 22.3509 65.363 22.28C65.2921 22.2089 65.2077 22.1525 65.1149 22.1143C65.0221 22.0757 64.9227 22.0559 64.8222 22.0561C64.7207 22.0561 64.6232 22.0755 64.5295 22.1143C64.4359 22.1531 64.3531 22.2084 64.2814 22.28C64.2103 22.3509 64.1539 22.4353 64.1157 22.5281C64.0769 22.6218 64.0575 22.7193 64.0575 22.8208ZM59.9984 23.9385C59.9982 24.039 60.018 24.1385 60.0566 24.2312C60.0949 24.3241 60.1512 24.4084 60.2224 24.4793C60.2933 24.5504 60.3776 24.6068 60.4705 24.645C60.5632 24.6837 60.6627 24.7035 60.7631 24.7033C60.8636 24.7035 60.9631 24.6837 61.0558 24.645C61.1487 24.6068 61.233 24.5504 61.3039 24.4793C61.3751 24.4084 61.4314 24.3241 61.4696 24.2312C61.5083 24.1385 61.5281 24.039 61.5279 23.9385C61.5279 23.837 61.5085 23.7395 61.4696 23.6459C61.4314 23.553 61.3751 23.4686 61.3039 23.3978C61.233 23.3266 61.1487 23.2703 61.0558 23.232C60.9631 23.1934 60.8636 23.1736 60.7631 23.1738C60.6617 23.1738 60.5642 23.1932 60.4705 23.232C60.3768 23.2708 60.294 23.3261 60.2224 23.3978C60.1512 23.4686 60.0949 23.553 60.0566 23.6459C60.0178 23.7395 59.9984 23.837 59.9984 23.9385ZM55.807 25.3798C55.8068 25.4802 55.8266 25.5797 55.8652 25.6725C55.9034 25.7653 55.9598 25.8497 56.0309 25.9206C56.1018 25.9917 56.1862 26.048 56.279 26.0863C56.3727 26.1251 56.4702 26.1445 56.5717 26.1445C56.6732 26.1445 56.7707 26.1251 56.8644 26.0863C56.9572 26.048 57.0416 25.9917 57.1125 25.9206C57.1836 25.8497 57.24 25.7653 57.2782 25.6725C57.3168 25.5797 57.3366 25.4802 57.3365 25.3798C57.3365 25.2783 57.317 25.1808 57.2782 25.0871C57.24 24.9942 57.1836 24.9099 57.1125 24.839C57.0416 24.7679 56.9572 24.7115 56.8644 24.6733C56.7716 24.6346 56.6722 24.6148 56.5717 24.615C56.4702 24.615 56.3727 24.6344 56.279 24.6733C56.1854 24.7121 56.1026 24.7674 56.0309 24.839C55.9598 24.9099 55.9034 24.9942 55.8652 25.0871C55.8264 25.1808 55.807 25.2783 55.807 25.3798ZM50.2625 27.1887C50.2625 27.2902 50.2819 27.3877 50.3207 27.4814C50.3596 27.5751 50.4149 27.6579 50.4865 27.7295C50.5574 27.8006 50.6417 27.857 50.7346 27.8952C50.8273 27.9339 50.9268 27.9537 51.0273 27.9535C51.1277 27.9537 51.2272 27.9339 51.3199 27.8952C51.4128 27.857 51.4971 27.8006 51.568 27.7295C51.6392 27.6586 51.6955 27.5743 51.7338 27.4814C51.7724 27.3887 51.7922 27.2892 51.792 27.1887C51.792 27.0872 51.7726 26.9897 51.7338 26.8961C51.6955 26.8032 51.6392 26.7188 51.568 26.648C51.4971 26.5768 51.4128 26.5205 51.3199 26.4822C51.2272 26.4436 51.1277 26.4238 51.0273 26.424C50.9258 26.424 50.8283 26.4434 50.7346 26.4822C50.6409 26.521 50.5581 26.5763 50.4865 26.648C50.4153 26.7188 50.359 26.8032 50.3207 26.8961C50.2819 26.9897 50.2625 27.0872 50.2625 27.1887ZM53.248 30.4977C53.2478 30.5982 53.2676 30.6977 53.3062 30.7904C53.3445 30.8833 53.4008 30.9676 53.472 31.0385C53.5429 31.1097 53.6272 31.166 53.7201 31.2043C53.8128 31.2429 53.9123 31.2627 54.0127 31.2625C54.1132 31.2627 54.2127 31.2429 54.3054 31.2043C54.3983 31.166 54.4826 31.1097 54.5535 31.0385C54.6246 30.9676 54.681 30.8833 54.7192 30.7904C54.7579 30.6977 54.7777 30.5982 54.7775 30.4977C54.7775 30.3963 54.7581 30.2988 54.7192 30.2051C54.681 30.1122 54.6246 30.0279 54.5535 29.957C54.4826 29.8858 54.3983 29.8295 54.3054 29.7912C54.2127 29.7526 54.1132 29.7328 54.0127 29.733C53.9113 29.733 53.8137 29.7524 53.7201 29.7912C53.6264 29.8301 53.5436 29.8854 53.472 29.957C53.4008 30.0279 53.3445 30.1122 53.3062 30.2051C53.2674 30.2988 53.248 30.3963 53.248 30.4977ZM49.0713 37.1305C49.0711 37.2309 49.0909 37.3304 49.1295 37.4232C49.1677 37.516 49.2241 37.6004 49.2952 37.6713C49.3661 37.7424 49.4505 37.7988 49.5433 37.837C49.6361 37.8756 49.7356 37.8954 49.836 37.8953C49.9365 37.8954 50.0359 37.8756 50.1287 37.837C50.2215 37.7988 50.3059 37.7424 50.3768 37.6713C50.4479 37.6004 50.5043 37.516 50.5425 37.4232C50.5811 37.3304 50.6009 37.2309 50.6008 37.1305C50.6008 37.029 50.5813 36.9315 50.5425 36.8378C50.5043 36.745 50.4479 36.6606 50.3768 36.5897C50.3059 36.5186 50.2215 36.4622 50.1287 36.424C50.0359 36.3854 49.9365 36.3656 49.836 36.3657C49.7345 36.3657 49.637 36.3852 49.5433 36.424C49.4497 36.4628 49.3669 36.5181 49.2952 36.5897C49.2241 36.6606 49.1677 36.745 49.1295 36.8378C49.0907 36.9315 49.0713 37.029 49.0713 37.1305ZM48.0712 31.586C48.071 31.6865 48.0908 31.786 48.1294 31.8787C48.1677 31.9716 48.224 32.0559 48.2952 32.1268C48.3661 32.198 48.4504 32.2543 48.5433 32.2926C48.637 32.3314 48.7345 32.3508 48.8359 32.3508C48.9364 32.351 49.0359 32.3312 49.1286 32.2926C49.2215 32.2543 49.3058 32.198 49.3767 32.1268C49.4479 32.0559 49.5042 31.9716 49.5425 31.8787C49.5811 31.786 49.6009 31.6865 49.6007 31.586C49.6007 31.4846 49.5813 31.3871 49.5425 31.2934C49.5042 31.2005 49.4479 31.1162 49.3767 31.0453C49.3058 30.9741 49.2215 30.9178 49.1286 30.8795C49.0359 30.8409 48.9364 30.8211 48.8359 30.8213C48.7345 30.8213 48.637 30.8407 48.5433 30.8795C48.4496 30.9184 48.3668 30.9737 48.2952 31.0453C48.224 31.1162 48.1677 31.2005 48.1294 31.2934C48.0906 31.3871 48.0712 31.4846 48.0712 31.586ZM44.5416 37.3658C44.5414 37.4663 44.5612 37.5657 44.5998 37.6585C44.6381 37.7513 44.6944 37.8357 44.7656 37.9066C44.8364 37.9777 44.9208 38.0341 45.0137 38.0723C45.1064 38.1109 45.2059 38.1307 45.3063 38.1306C45.4068 38.1307 45.5063 38.1109 45.599 38.0723C45.6919 38.0341 45.7762 37.9777 45.8471 37.9066C45.9182 37.8357 45.9746 37.7513 46.0128 37.6585C46.0515 37.5657 46.0713 37.4663 46.0711 37.3658C46.0711 37.2643 46.0517 37.1668 46.0128 37.0731C45.9746 36.9803 45.9182 36.8959 45.8471 36.825C45.7762 36.7539 45.6919 36.6975 45.599 36.6593C45.5063 36.6207 45.4068 36.6009 45.3063 36.6011C45.2048 36.6011 45.1073 36.6205 45.0137 36.6593C44.92 36.6981 44.8372 36.7534 44.7656 36.825C44.6944 36.8959 44.6381 36.9803 44.5998 37.0731C44.561 37.1668 44.5416 37.2643 44.5416 37.3658ZM39.9089 37.8364C39.9089 37.9379 39.9283 38.0354 39.9672 38.1291C40.006 38.2228 40.0613 38.3056 40.1329 38.3772C40.2038 38.4483 40.2881 38.5047 40.381 38.5429C40.4747 38.5818 40.5722 38.6012 40.6737 38.6012C40.7752 38.6012 40.8727 38.5818 40.9663 38.5429C41.0592 38.5047 41.1436 38.4483 41.2145 38.3772C41.2856 38.3063 41.3419 38.222 41.3802 38.1291C41.4188 38.0364 41.4386 37.9369 41.4384 37.8364C41.4384 37.7349 41.419 37.6374 41.3802 37.5438C41.3419 37.4509 41.2856 37.3665 41.2145 37.2957C41.1436 37.2245 41.0592 37.1682 40.9663 37.1299C40.8736 37.0913 40.7741 37.0715 40.6737 37.0717C40.5722 37.0717 40.4747 37.0911 40.381 37.1299C40.2873 37.1687 40.2045 37.224 40.1329 37.2957C40.0618 37.3665 40.0054 37.4509 39.9672 37.5438C39.9283 37.6374 39.9089 37.7349 39.9089 37.8364ZM61.572 28.1152C61.5718 28.2157 61.5916 28.3152 61.6302 28.4079C61.6685 28.5008 61.7248 28.5851 61.796 28.656C61.8669 28.7272 61.9512 28.7835 62.0441 28.8218C62.1368 28.8604 62.2363 28.8802 62.3368 28.88C62.4382 28.88 62.5357 28.8606 62.6294 28.8218C62.7223 28.7835 62.8066 28.7272 62.8775 28.656C62.9487 28.5851 63.005 28.5008 63.0433 28.4079C63.0819 28.3152 63.1017 28.2157 63.1015 28.1152C63.1015 28.0138 63.0821 27.9163 63.0433 27.8226C63.005 27.7297 62.9487 27.6454 62.8775 27.5745C62.8066 27.5033 62.7223 27.447 62.6294 27.4087C62.5367 27.3701 62.4372 27.3503 62.3368 27.3505C62.2353 27.3505 62.1378 27.3699 62.0441 27.4087C61.9504 27.4476 61.8676 27.5029 61.796 27.5745C61.7248 27.6454 61.6685 27.7297 61.6302 27.8226C61.5914 27.9163 61.572 28.0138 61.572 28.1152ZM57.1747 29.3065C57.1745 29.4069 57.1943 29.5064 57.2329 29.5992C57.2712 29.692 57.3275 29.7764 57.3987 29.8473C57.4696 29.9184 57.5539 29.9748 57.6468 30.013C57.7405 30.0518 57.838 30.0712 57.9394 30.0712C58.0409 30.0712 58.1384 30.0518 58.2321 30.013C58.325 29.9748 58.4093 29.9184 58.4802 29.8473C58.5514 29.7764 58.6077 29.692 58.6459 29.5992C58.6846 29.5064 58.7044 29.4069 58.7042 29.3065C58.7042 29.205 58.6848 29.1075 58.6459 29.0138C58.6077 28.921 58.5514 28.8366 58.4802 28.7657C58.4093 28.6946 58.325 28.6382 58.2321 28.6C58.1394 28.5614 58.0399 28.5416 57.9394 28.5417C57.838 28.5417 57.7405 28.5612 57.6468 28.6C57.5531 28.6388 57.4703 28.6941 57.3987 28.7657C57.3275 28.8366 57.2712 28.921 57.2329 29.0138C57.1941 29.1075 57.1747 29.205 57.1747 29.3065ZM58.6307 35.6892C58.6305 35.7897 58.6503 35.8892 58.6889 35.9819C58.7271 36.0748 58.7835 36.1591 58.8546 36.23C58.9255 36.3012 59.0099 36.3575 59.1027 36.3957C59.1955 36.4344 59.295 36.4542 59.3954 36.454C59.4959 36.4542 59.5953 36.4344 59.6881 36.3957C59.7809 36.3575 59.8653 36.3012 59.9362 36.23C60.0073 36.1591 60.0637 36.0748 60.1019 35.9819C60.1405 35.8892 60.1603 35.7897 60.1602 35.6892C60.1602 35.5878 60.1407 35.4903 60.1019 35.3966C60.0637 35.3037 60.0073 35.2194 59.9362 35.1485C59.8653 35.0773 59.7809 35.021 59.6881 34.9827C59.5953 34.9441 59.4959 34.9243 59.3954 34.9245C59.2939 34.9245 59.1964 34.9439 59.1027 34.9827C59.0091 35.0215 58.9263 35.0768 58.8546 35.1485C58.7835 35.2194 58.7271 35.3037 58.6889 35.3966C58.6501 35.4903 58.6307 35.5878 58.6307 35.6892ZM53.6304 36.5716C53.6302 36.6721 53.65 36.7716 53.6886 36.8643C53.7268 36.9572 53.7832 37.0415 53.8543 37.1124C53.9252 37.1836 54.0096 37.2399 54.1024 37.2782C54.1952 37.3168 54.2947 37.3366 54.3951 37.3364C54.4966 37.3364 54.5941 37.317 54.6878 37.2782C54.7806 37.2399 54.865 37.1836 54.9359 37.1124C55.007 37.0415 55.0634 36.9572 55.1016 36.8643C55.1402 36.7716 55.16 36.6721 55.1599 36.5716C55.1599 36.4702 55.1404 36.3727 55.1016 36.279C55.0634 36.1861 55.007 36.1018 54.9359 36.0309C54.865 35.9597 54.7806 35.9034 54.6878 35.8651C54.595 35.8265 54.4956 35.8067 54.3951 35.8069C54.2936 35.8069 54.1961 35.8263 54.1024 35.8651C54.0088 35.904 53.926 35.9593 53.8543 36.0309C53.7832 36.1018 53.7268 36.1861 53.6886 36.279C53.6498 36.3727 53.6304 36.4702 53.6304 36.5716ZM62.5574 39.4689C62.5572 39.5693 62.577 39.6688 62.6156 39.7615C62.6544 39.8552 62.7097 39.938 62.7813 40.0096C62.8522 40.0808 62.9366 40.1371 63.0294 40.1754C63.1231 40.2142 63.2206 40.2336 63.3221 40.2336C63.4236 40.2336 63.5211 40.2142 63.6148 40.1754C63.7077 40.1371 63.792 40.0808 63.8629 40.0096C63.934 39.9388 63.9904 39.8544 64.0286 39.7615C64.0673 39.6688 64.0871 39.5693 64.0869 39.4689C64.0869 39.3674 64.0675 39.2699 64.0286 39.1762C63.9904 39.0833 63.934 38.999 63.8629 38.9281C63.792 38.857 63.7077 38.8006 63.6148 38.7624C63.5221 38.7237 63.4226 38.7039 63.3221 38.7041C63.2206 38.7041 63.1231 38.7235 63.0294 38.7624C62.9358 38.8012 62.853 38.8565 62.7813 38.9281C62.7102 38.999 62.6539 39.0833 62.6156 39.1762C62.5768 39.2699 62.5574 39.3674 62.5574 39.4689ZM67.2929 39.1747C67.2928 39.2752 67.3126 39.3747 67.3512 39.4674C67.39 39.5611 67.4453 39.6439 67.5169 39.7155C67.5878 39.7867 67.6722 39.843 67.765 39.8813C67.8587 39.9201 67.9562 39.9395 68.0577 39.9395C68.1592 39.9395 68.2567 39.9201 68.3504 39.8813C68.4432 39.843 68.5276 39.7867 68.5985 39.7155C68.6696 39.6446 68.726 39.5603 68.7642 39.4674C68.8028 39.3747 68.8226 39.2752 68.8224 39.1747C68.8224 39.0733 68.803 38.9758 68.7642 38.8821C68.726 38.7892 68.6696 38.7049 68.5985 38.634C68.5276 38.5628 68.4432 38.5065 68.3504 38.4682C68.2576 38.4296 68.1581 38.4098 68.0577 38.41C67.9562 38.41 67.8587 38.4294 67.765 38.4682C67.6713 38.5071 67.5885 38.5624 67.5169 38.634C67.4458 38.7049 67.3894 38.7892 67.3512 38.8821C67.3124 38.9758 67.2929 39.0733 67.2929 39.1747ZM52.9244 41.219C52.9244 41.3205 52.9438 41.418 52.9827 41.5116C53.0215 41.6053 53.0768 41.6881 53.1484 41.7598C53.2193 41.8309 53.3036 41.8872 53.3965 41.9255C53.4902 41.9643 53.5877 41.9837 53.6892 41.9837C53.7907 41.9837 53.8882 41.9643 53.9818 41.9255C54.0747 41.8872 54.1591 41.8309 54.2299 41.7598C54.3011 41.6889 54.3574 41.6045 54.3957 41.5116C54.4343 41.4189 54.4541 41.3194 54.4539 41.219C54.4539 41.1175 54.4345 41.02 54.3957 40.9263C54.3574 40.8334 54.3011 40.7491 54.2299 40.6782C54.1591 40.6071 54.0747 40.5507 53.9818 40.5125C53.8891 40.4738 53.7896 40.454 53.6892 40.4542C53.5877 40.4542 53.4902 40.4736 53.3965 40.5125C53.3028 40.5513 53.22 40.6066 53.1484 40.6782C53.0773 40.7491 53.0209 40.8334 52.9827 40.9263C52.9438 41.02 52.9244 41.1175 52.9244 41.219ZM58.0277 39.9248C58.0275 40.0252 58.0473 40.1247 58.0859 40.2175C58.1242 40.3103 58.1805 40.3947 58.2517 40.4656C58.3226 40.5367 58.4069 40.593 58.4998 40.6313C58.5934 40.6701 58.691 40.6895 58.7924 40.6895C58.8939 40.6895 58.9914 40.6701 59.0851 40.6313C59.178 40.593 59.2623 40.5367 59.3332 40.4656C59.4043 40.3947 59.4607 40.3103 59.4989 40.2175C59.5376 40.1247 59.5574 40.0252 59.5572 39.9248C59.5572 39.8233 59.5378 39.7258 59.4989 39.6321C59.4607 39.5392 59.4043 39.4549 59.3332 39.384C59.2623 39.3129 59.178 39.2565 59.0851 39.2183C58.9924 39.1796 58.8929 39.1598 58.7924 39.16C58.691 39.16 58.5934 39.1794 58.4998 39.2183C58.4061 39.2571 58.3233 39.3124 58.2517 39.384C58.1805 39.4549 58.1242 39.5392 58.0859 39.6321C58.0471 39.7258 58.0277 39.8233 58.0277 39.9248Z" fill="#EFE9CE"/>
</svg>
