<svg width="103" height="93" viewBox="0 0 103 93" fill="none" xmlns="http://www.w3.org/2000/svg">
<path d="M74.5926 70.0556C74.5926 66.4094 74.3042 58.2312 72.1 49.9706C68.186 35.3034 59.9872 27.1046 48.4306 26.2394C48.2864 26.2188 48.1422 26.3424 48.1216 26.5072C48.101 26.672 48.2246 26.7956 48.3894 26.8162C75.7668 28.835 74.0158 71.6006 73.9952 72.0126C73.9746 72.1568 74.0982 72.301 74.263 72.301C74.4072 72.301 74.5514 72.198 74.5514 72.0332C74.5514 71.992 74.5926 71.271 74.5926 70.0556Z" fill="#9D432A"/>
<path d="M70.3078 37.1574C70.3078 37.1574 46.3706 14.621 55.6406 1.82842C64.8282 -1.30278 65.5492 12.3756 65.5492 12.3756C65.5492 12.3756 64.8488 1.35462 71.6056 1.14862C77.2912 3.62062 75.5196 12.1696 75.5196 12.1696C75.5196 12.1696 75.8698 2.32282 83.945 4.60942C92.5558 11.84 70.3078 37.1574 70.3078 37.1574Z" fill="#F5AA49"/>
<path d="M86.211 9.40926C86.211 9.16206 86.211 8.93546 86.1904 8.70886C86.0462 6.89606 85.3458 5.47466 84.1304 4.44466C84.1098 4.42406 84.0686 4.40346 84.0274 4.38286C81.782 3.74426 79.9074 3.97086 78.4242 5.04206C77.2294 5.90726 76.4878 7.18446 76.0346 8.44106C75.8904 5.74246 75.0046 2.36406 71.7292 0.942659C71.6674 0.901459 71.6262 0.901459 71.585 0.901459C70.0606 0.942659 68.7628 1.54006 67.7534 2.63186C66.1672 4.36226 65.5698 7.06086 65.3432 9.18266C64.8076 6.77246 63.6952 3.62066 61.3674 2.05506C59.7606 0.963259 57.783 0.798459 55.517 1.58126C55.4552 1.60186 55.414 1.64306 55.3728 1.68426C51.5 7.01966 52.8596 14.8889 59.225 24.4473C64.0042 31.6161 70.0194 37.3017 70.0812 37.3635C70.143 37.4253 70.2048 37.4459 70.2872 37.4459C70.3696 37.4459 70.4314 37.4047 70.4932 37.3429C71.173 36.6013 86.211 19.3797 86.211 9.40926ZM83.8008 4.89786C84.872 5.82486 85.49 7.10206 85.6136 8.72946C85.6342 8.95606 85.6342 9.16206 85.6342 9.38866C85.6342 18.5763 72.0588 34.6649 70.2872 36.7455C67.9594 34.4795 47.4006 13.8795 55.8054 2.07566C57.8654 1.39586 59.637 1.54006 61.079 2.50826C64.7252 4.95966 65.2402 11.9019 65.2608 12.3757V12.3963C65.2814 12.5405 65.405 12.6641 65.5492 12.6641C65.6934 12.6641 65.817 12.5611 65.817 12.3757V12.3551C65.7964 11.9637 65.5286 5.90726 68.1654 3.00266C69.0512 2.03446 70.1842 1.49886 71.5438 1.45766C75.4166 3.18806 75.6226 7.94666 75.4372 10.5011C75.2518 11.4281 75.2312 12.1079 75.2312 12.1903C75.2312 12.3139 75.3342 12.4581 75.4784 12.4787C75.6226 12.4993 75.7462 12.3963 75.7874 12.2521C75.7874 12.2315 75.911 11.6135 75.9934 10.6659C76.2818 9.10026 77.0028 6.75186 78.7538 5.47466C80.0516 4.52706 81.7614 4.32106 83.8008 4.89786Z" fill="#9D432A"/>
<path d="M58.3186 26.466C58.3186 26.466 45.5466 1.82843 36.7504 4.83603C33.9282 14.2708 58.3186 26.466 58.3186 26.466Z" fill="#2B807D"/>
<path d="M58.607 26.4661C58.607 26.4249 58.5864 26.3837 58.5864 26.3425C58.0508 25.3125 45.5878 1.51945 36.668 4.56825C36.5856 4.58885 36.5238 4.67125 36.4826 4.75365C35.2878 8.79125 38.5838 13.7353 46.3088 19.4209C52.015 23.6233 58.1332 26.6927 58.195 26.7339C58.298 26.7957 58.4422 26.7751 58.5246 26.6721C58.5658 26.6103 58.607 26.5279 58.607 26.4661ZM36.977 5.04205C44.5578 2.73485 55.3728 21.6457 57.6388 25.7863C53.4982 23.6027 34.814 13.1997 36.977 5.04205Z" fill="#9D432A"/>
<path d="M80.8138 27.805C80.8138 27.805 93.7094 3.22924 102.506 6.29864C105.266 15.7334 80.8138 27.805 80.8138 27.805Z" fill="#2B807D"/>
<path d="M103 7.82305C103 7.26685 102.918 6.73125 102.773 6.19565C102.753 6.11325 102.691 6.03085 102.588 6.01025C93.6888 2.92025 81.1022 26.6515 80.5666 27.6609C80.5048 27.7639 80.5254 27.9081 80.6078 27.9905C80.6902 28.0729 80.8344 28.0935 80.9374 28.0523C81.885 27.5785 103 17.0519 103 7.82305ZM102.279 6.50465C104.38 14.6211 85.6548 24.9623 81.4936 27.1459C83.7802 22.9847 94.6982 4.13565 102.279 6.50465ZM92.6588 26.7545V26.6927C92.6176 26.5485 92.4734 26.4455 92.3292 26.4867C82.4 28.6291 77.0646 34.1705 74.3454 38.4347C71.3996 43.0697 70.8022 47.1279 70.761 47.2927C70.7404 47.4369 70.8434 47.5811 71.0082 47.6017C71.1524 47.6223 71.2966 47.5193 71.3172 47.3545C71.3172 47.3133 71.9146 43.2139 74.8192 38.7025C77.4972 34.5207 82.709 29.1235 92.4322 27.0223C92.5764 27.0017 92.6588 26.8781 92.6588 26.7545ZM77.0028 61.4449C77.0028 61.4449 77.25 37.0339 87.2822 37.8579C93.8948 38.4141 90.537 47.5399 84.666 44.1409C81.679 42.4105 77.0028 61.4449 77.0028 61.4449Z" fill="#9D432A"/>
<path d="M91.1962 41.1539C91.1962 40.8037 91.155 40.4741 91.052 40.1445C90.6194 38.6819 89.2392 37.7549 87.3028 37.6107C85.6136 37.4665 84.0892 38.0227 82.7502 39.2175C76.9616 44.5117 76.735 60.7651 76.7144 61.4655C76.7144 61.6097 76.8174 61.7333 76.9616 61.7333C77.1058 61.7539 77.2294 61.6509 77.2706 61.5273C78.3624 57.0983 81.679 45.3769 84.0068 44.3881C84.1922 44.3057 84.357 44.3057 84.5218 44.4087C86.3758 45.4799 88.2298 45.4593 89.61 44.3675C90.6194 43.5641 91.1962 42.3487 91.1962 41.1539ZM77.3942 58.8287C77.7032 53.9259 78.8774 43.5023 83.121 39.6089C84.3364 38.5171 85.7166 38.0227 87.241 38.1463C88.9714 38.2905 90.125 39.0527 90.4958 40.2887C90.8872 41.5453 90.3722 43.0285 89.2598 43.8937C88.065 44.8413 86.4376 44.8413 84.7896 43.8937C84.4806 43.7083 84.1304 43.6877 83.7802 43.8525C81.4524 44.8619 78.6508 54.1937 77.3942 58.8287ZM66.2702 47.0249C66.4342 47.0249 66.5917 46.9935 66.7432 46.9307C66.8933 46.8689 67.0296 46.7779 67.1442 46.6629C67.2592 46.5483 67.3502 46.412 67.412 46.2618C67.4749 46.1104 67.5062 45.9528 67.5062 45.7889C67.5065 45.6265 67.4745 45.4657 67.412 45.3159C67.3502 45.1658 67.2592 45.0294 67.1442 44.9148C67.0296 44.7998 66.8933 44.7088 66.7432 44.647C66.5933 44.5846 66.4325 44.5526 66.2702 44.5529C66.1062 44.5529 65.9486 44.5842 65.7972 44.647C65.6471 44.7088 65.5107 44.7998 65.3961 44.9148C65.2811 45.0294 65.1901 45.1658 65.1283 45.3159C65.0659 45.4657 65.0339 45.6265 65.0342 45.7889C65.0342 45.9528 65.0655 46.1104 65.1283 46.2618C65.1901 46.412 65.2811 46.5483 65.3961 46.6629C65.5107 46.7779 65.6471 46.8689 65.7972 46.9307C65.9486 46.9935 66.1062 47.0249 66.2702 47.0249ZM69.0718 54.4409C69.2357 54.4409 69.3933 54.4095 69.5448 54.3467C69.6949 54.2849 69.8312 54.1939 69.9458 54.0789C70.0608 53.9643 70.1518 53.828 70.2136 53.6778C70.2765 53.5264 70.3078 53.3688 70.3078 53.2049C70.3081 53.0425 70.2761 52.8817 70.2136 52.7319C70.1518 52.5818 70.0608 52.4454 69.9458 52.3308C69.8312 52.2158 69.6949 52.1248 69.5448 52.063C69.3949 52.0006 69.2341 51.9686 69.0718 51.9689C68.9078 51.9689 68.7502 52.0002 68.5988 52.063C68.4487 52.1248 68.3123 52.2158 68.1977 52.3308C68.0827 52.4454 67.9917 52.5818 67.9299 52.7319C67.8675 52.8817 67.8355 53.0425 67.8358 53.2049C67.8358 53.3688 67.8671 53.5264 67.9299 53.6778C67.9917 53.828 68.0827 53.9643 68.1977 54.0789C68.3123 54.1939 68.4487 54.2849 68.5988 54.3467C68.7502 54.4095 68.9078 54.4409 69.0718 54.4409ZM63.8188 41.0715C63.9827 41.0715 64.1403 41.0401 64.2918 40.9773C64.4419 40.9155 64.5782 40.8245 64.6928 40.7095C64.8078 40.5949 64.8988 40.4586 64.9606 40.3084C65.0235 40.157 65.0548 39.9994 65.0548 39.8355C65.0551 39.6731 65.0231 39.5123 64.9606 39.3625C64.8988 39.2124 64.8078 39.076 64.6928 38.9614C64.5782 38.8464 64.4419 38.7554 64.2918 38.6936C64.1419 38.6312 63.9811 38.5992 63.8188 38.5995C63.6548 38.5995 63.4972 38.6308 63.3458 38.6936C63.1957 38.7554 63.0593 38.8464 62.9447 38.9614C62.8297 39.076 62.7387 39.2124 62.6769 39.3625C62.6145 39.5123 62.5825 39.6731 62.5828 39.8355C62.5828 39.9994 62.6141 40.157 62.6769 40.3084C62.7387 40.4586 62.8297 40.5949 62.9447 40.7095C63.0593 40.8245 63.1957 40.9155 63.3458 40.9773C63.4972 41.0401 63.6548 41.0715 63.8188 41.0715ZM59.2662 36.5395C59.4302 36.5395 59.5877 36.5081 59.7392 36.4453C59.8893 36.3835 60.0256 36.2925 60.1402 36.1775C60.2552 36.0629 60.3462 35.9266 60.408 35.7764C60.4709 35.625 60.5022 35.4674 60.5022 35.3035C60.5025 35.1411 60.4705 34.9803 60.408 34.8305C60.3462 34.6804 60.2552 34.544 60.1402 34.4294C60.0256 34.3144 59.8893 34.2234 59.7392 34.1616C59.5893 34.0992 59.4285 34.0672 59.2662 34.0675C59.1022 34.0675 58.9446 34.0988 58.7932 34.1616C58.6431 34.2234 58.5067 34.3144 58.3921 34.4294C58.2771 34.544 58.1861 34.6804 58.1243 34.8305C58.0619 34.9803 58.0299 35.1411 58.0302 35.3035C58.0302 35.4674 58.0615 35.625 58.1243 35.7764C58.1861 35.9266 58.2771 36.0629 58.3921 36.1775C58.5067 36.2925 58.6431 36.3835 58.7932 36.4453C58.9446 36.5081 59.1022 36.5395 59.2662 36.5395ZM54.9814 33.4289C55.1453 33.4289 55.3029 33.3975 55.4544 33.3347C55.6045 33.2729 55.7408 33.1819 55.8554 33.0669C55.9704 32.9523 56.0614 32.816 56.1232 32.6658C56.1861 32.5144 56.2174 32.3568 56.2174 32.1929C56.2177 32.0305 56.1857 31.8697 56.1232 31.7199C56.0614 31.5698 55.9704 31.4334 55.8554 31.3188C55.7408 31.2038 55.6045 31.1128 55.4544 31.051C55.3045 30.9886 55.1437 30.9566 54.9814 30.9569C54.8174 30.9569 54.6598 30.9882 54.5084 31.051C54.3583 31.1128 54.2219 31.2038 54.1073 31.3188C53.9923 31.4334 53.9013 31.5698 53.8395 31.7199C53.7771 31.8697 53.7451 32.0305 53.7454 32.1929C53.7454 32.3568 53.7767 32.5144 53.8395 32.6658C53.9013 32.816 53.9923 32.9523 54.1073 33.0669C54.2219 33.1819 54.3583 33.2729 54.5084 33.3347C54.6598 33.3975 54.8174 33.4289 54.9814 33.4289ZM48.6366 31.6779C48.8006 31.6779 48.9581 31.6465 49.1095 31.5837C49.2597 31.5219 49.396 31.4309 49.5106 31.3159C49.6256 31.2013 49.7166 31.065 49.7784 30.9148C49.8413 30.7634 49.8726 30.6058 49.8726 30.4419C49.8729 30.2795 49.8409 30.1187 49.7784 29.9689C49.7166 29.8188 49.6256 29.6824 49.5106 29.5678C49.396 29.4528 49.2597 29.3618 49.1095 29.3C48.9597 29.2376 48.7989 29.2056 48.6366 29.2059C48.4726 29.2059 48.315 29.2372 48.1636 29.3C48.0135 29.3618 47.8771 29.4528 47.7625 29.5678C47.6475 29.6824 47.5565 29.8188 47.4947 29.9689C47.4323 30.1187 47.4003 30.2795 47.4006 30.4419C47.4006 30.6058 47.4319 30.7634 47.4947 30.9148C47.5565 31.065 47.6475 31.2013 47.7625 31.3159C47.8771 31.4309 48.0135 31.5219 48.1636 31.5837C48.315 31.6465 48.4726 31.6779 48.6366 31.6779ZM74.3454 46.4893C74.5093 46.4893 74.6669 46.4579 74.8184 46.3951C74.9685 46.3333 75.1048 46.2423 75.2194 46.1273C75.3344 46.0127 75.4254 45.8764 75.4872 45.7262C75.5501 45.5748 75.5814 45.4172 75.5814 45.2533C75.5817 45.0909 75.5497 44.9301 75.4872 44.7803C75.4254 44.6302 75.3344 44.4938 75.2194 44.3792C75.1048 44.2642 74.9685 44.1732 74.8184 44.1114C74.6685 44.049 74.5077 44.017 74.3454 44.0173C74.1814 44.0173 74.0238 44.0486 73.8724 44.1114C73.7223 44.1732 73.5859 44.2642 73.4713 44.3792C73.3563 44.4938 73.2653 44.6302 73.2035 44.7803C73.1411 44.9301 73.1091 45.0909 73.1094 45.2533C73.1094 45.4172 73.1407 45.5748 73.2035 45.7262C73.2653 45.8764 73.3563 46.0127 73.4713 46.1273C73.5859 46.2423 73.7223 46.3333 73.8724 46.3951C74.0238 46.4579 74.1814 46.4893 74.3454 46.4893ZM77.4354 40.7007C77.5993 40.7007 77.7569 40.6693 77.9084 40.6065C78.0585 40.5447 78.1948 40.4537 78.3094 40.3387C78.4244 40.2241 78.5154 40.0878 78.5772 39.9376C78.6401 39.7862 78.6714 39.6286 78.6714 39.4647C78.6717 39.3023 78.6397 39.1415 78.5772 38.9917C78.5154 38.8416 78.4244 38.7052 78.3094 38.5906C78.1948 38.4756 78.0585 38.3846 77.9084 38.3228C77.7585 38.2604 77.5977 38.2284 77.4354 38.2287C77.2714 38.2287 77.1138 38.26 76.9624 38.3228C76.8123 38.3846 76.6759 38.4756 76.5613 38.5906C76.4463 38.7052 76.3553 38.8416 76.2935 38.9917C76.2311 39.1415 76.1991 39.3023 76.1994 39.4647C76.1994 39.6286 76.2307 39.7862 76.2935 39.9376C76.3553 40.0878 76.4463 40.2241 76.5613 40.3387C76.6759 40.4537 76.8123 40.5447 76.9624 40.6065C77.1138 40.6693 77.2714 40.7007 77.4354 40.7007ZM82.5854 36.6013C82.7494 36.6013 82.9069 36.5699 83.0584 36.5071C83.2085 36.4453 83.3448 36.3543 83.4594 36.2393C83.5744 36.1247 83.6654 35.9884 83.7272 35.8382C83.7901 35.6868 83.8214 35.5292 83.8214 35.3653C83.8217 35.2029 83.7897 35.0421 83.7272 34.8923C83.6654 34.7422 83.5744 34.6058 83.4594 34.4912C83.3448 34.3762 83.2085 34.2852 83.0584 34.2234C82.9085 34.161 82.7477 34.129 82.5854 34.1293C82.4214 34.1293 82.2638 34.1606 82.1124 34.2234C81.9623 34.2852 81.8259 34.3762 81.7113 34.4912C81.5963 34.6058 81.5053 34.7422 81.4435 34.8923C81.3811 35.0421 81.3491 35.2029 81.3494 35.3653C81.3494 35.5292 81.3807 35.6868 81.4435 35.8382C81.5053 35.9884 81.5963 36.1247 81.7113 36.2393C81.8259 36.3543 81.9623 36.4453 82.1124 36.5071C82.2638 36.5699 82.4214 36.6013 82.5854 36.6013ZM87.4058 34.6237C87.5697 34.6237 87.7271 34.5923 87.8788 34.5295C88.0289 34.4677 88.1652 34.3767 88.2798 34.2617C88.3948 34.1471 88.4858 34.0108 88.5476 33.8606C88.6105 33.7092 88.6418 33.5516 88.6418 33.3877C88.6421 33.2253 88.6101 33.0645 88.5476 32.9147C88.4858 32.7646 88.3948 32.6282 88.2798 32.5136C88.1652 32.3986 88.0289 32.3076 87.8788 32.2458C87.7289 32.1834 87.5681 32.1514 87.4058 32.1517C87.2418 32.1517 87.0842 32.183 86.9328 32.2458C86.7827 32.3076 86.6463 32.3986 86.5317 32.5136C86.4167 32.6282 86.3257 32.7646 86.2639 32.9147C86.2015 33.0645 86.1695 33.2253 86.1698 33.3877C86.1698 33.5516 86.2011 33.7092 86.2639 33.8606C86.3257 34.0108 86.4167 34.1471 86.5317 34.2617C86.6463 34.3767 86.7827 34.4677 86.9328 34.5295C87.0842 34.5923 87.2418 34.6237 87.4058 34.6237ZM93.0708 32.9345C93.2347 32.9345 93.3923 32.9031 93.5438 32.8403C93.6939 32.7785 93.8302 32.6875 93.9448 32.5725C94.0598 32.4579 94.1508 32.3216 94.2126 32.1714C94.2755 32.02 94.3068 31.8624 94.3068 31.6985C94.3071 31.5361 94.2751 31.3753 94.2126 31.2255C94.1508 31.0754 94.0598 30.939 93.9448 30.8244C93.8302 30.7094 93.6939 30.6184 93.5438 30.5566C93.3939 30.4942 93.2331 30.4622 93.0708 30.4625C92.9068 30.4625 92.7492 30.4938 92.5978 30.5566C92.4477 30.6184 92.3113 30.7094 92.1967 30.8244C92.0817 30.939 91.9907 31.0754 91.9289 31.2255C91.8665 31.3753 91.8345 31.5361 91.8348 31.6985C91.8348 31.8624 91.8661 32.02 91.9289 32.1714C91.9907 32.3216 92.0817 32.4579 92.1967 32.5725C92.3113 32.6875 92.4477 32.7785 92.5978 32.8403C92.7492 32.9031 92.9068 32.9345 93.0708 32.9345Z" fill="#9D432A"/>
<path d="M98.7976 28.3819C99.2981 28.3821 99.7938 28.2836 100.256 28.0918C100.719 27.9005 101.139 27.6198 101.492 27.2657C101.846 26.912 102.127 26.4918 102.318 26.0293C102.51 25.567 102.609 25.0714 102.609 24.5709C102.609 24.0703 102.51 23.5747 102.319 23.1124C102.127 22.65 101.847 22.2299 101.493 21.8762C101.139 21.5221 100.719 21.2414 100.256 21.0501C99.7938 20.8583 99.2982 20.7597 98.7976 20.7599C98.2971 20.7596 97.8015 20.8582 97.3392 21.0499C96.8767 21.2412 96.4565 21.5219 96.1027 21.876C95.7487 22.2297 95.468 22.6499 95.2767 23.1124C95.0849 23.5747 94.9864 24.0703 94.9866 24.5709C94.9864 25.0714 95.0849 25.567 95.2767 26.0293C95.468 26.4918 95.7487 26.9119 96.1027 27.2655C96.4565 27.6196 96.8767 27.9003 97.3392 28.0916C97.8015 28.2834 98.2971 28.3821 98.7976 28.3819Z" fill="#C2A576"/>
<path d="M102.897 24.5709C102.897 24.0559 102.794 23.5203 102.588 23.0259C101.723 20.9453 99.3332 19.9359 97.232 20.8011C95.1308 21.6663 94.142 24.0559 95.0072 26.1571C95.8724 28.2377 98.262 29.2471 100.363 28.3819C101.949 27.7227 102.897 26.1777 102.897 24.5709ZM95.275 24.5915C95.275 23.1907 96.099 21.8723 97.4792 21.3161C99.292 20.5745 101.352 21.4397 102.094 23.2525C102.835 25.0653 101.97 27.1253 100.157 27.8669C98.3444 28.6085 96.2844 27.7433 95.5428 25.9305C95.3574 25.4773 95.275 25.0241 95.275 24.5915ZM70.5756 37.1575L69.7722 23.3761C69.7722 23.2319 69.628 23.1083 69.4838 23.1083C69.319 23.1083 69.216 23.2525 69.216 23.3967L69.9576 36.0451C68.2066 33.1405 63.0772 24.3649 62.9124 20.6363C62.9124 20.4921 62.7682 20.3685 62.624 20.3685C62.4798 20.3685 62.3562 20.5333 62.3562 20.6569C62.5622 25.2919 69.7722 36.8073 70.0812 37.2811C70.143 37.3841 70.2872 37.4459 70.4108 37.4047C70.5138 37.4047 70.5756 37.2811 70.5756 37.1575Z" fill="#9D432A"/>
<path d="M77.4972 19.8122C77.4972 19.6886 77.4148 19.565 77.2706 19.5444C77.1264 19.5032 76.9616 19.6062 76.941 19.7504C76.8998 19.8946 73.4802 34.9532 70.143 36.3128C69.9988 36.3746 69.937 36.5394 69.9782 36.6836C70.04 36.8278 70.2048 36.8896 70.349 36.8278C73.9334 35.3652 77.3324 20.5126 77.4766 19.874C77.4972 19.8534 77.4972 19.8328 77.4972 19.8122ZM58.607 26.466C58.607 26.4042 58.5864 26.3218 58.5246 26.2806L43.4042 10.7688C43.3012 10.6658 43.1158 10.6658 43.0128 10.7688C42.9098 10.8718 42.9098 11.0572 43.0128 11.1602L58.1332 26.672C58.2362 26.775 58.4216 26.775 58.5246 26.672C58.5658 26.6102 58.607 26.5278 58.607 26.466ZM97.9942 11.8812C97.9942 11.8194 97.9736 11.737 97.9118 11.6958C97.8088 11.5928 97.6234 11.5722 97.5204 11.6752L80.6078 27.5784C80.5048 27.6814 80.4842 27.8668 80.5872 27.9698C80.6902 28.0728 80.8756 28.0934 80.9786 27.9904L97.8912 12.0872C97.9736 12.0254 97.9942 11.9636 97.9942 11.8812ZM74.5514 72.0126C74.5514 71.9096 74.4896 71.8066 74.3866 71.7448C74.16 71.6624 51.191 62.4748 35.844 69.2316C30.2614 71.683 26.3268 75.9473 24.102 81.9007C24.0402 82.0448 24.1226 82.2096 24.2668 82.2714C24.411 82.3332 24.5758 82.2508 24.617 82.1067C26.78 76.2974 30.6116 72.1362 36.05 69.7466C51.1704 63.0928 73.9334 72.1774 74.16 72.2804C74.3042 72.3422 74.469 72.2598 74.5308 72.1156C74.5514 72.0744 74.5514 72.0332 74.5514 72.0126Z" fill="#9D432A"/>
<path d="M40.685 63.9168C40.685 63.9168 12.3806 80.6234 2.67803 68.181C2.22483 58.499 15.5736 61.589 15.5736 61.589C15.5736 61.589 4.77923 59.1994 6.48903 52.6486C10.4442 47.8694 18.1692 51.9482 18.1692 51.9482C18.1692 51.9482 8.81683 48.8582 13.2458 41.7512C22.557 35.4888 40.685 63.9168 40.685 63.9168Z" fill="#F5AA49"/>
<path d="M40.9528 63.9168C40.9528 63.855 40.9322 63.8138 40.9116 63.7726C40.3554 62.9074 27.4186 42.7606 17.7366 40.7624C15.965 40.3916 14.3994 40.6594 13.0604 41.5658C13.0192 41.5864 12.9986 41.607 12.978 41.6482C11.742 43.6258 11.433 45.5004 12.051 47.2102C12.5454 48.5904 13.5754 49.6616 14.6466 50.465C12.0098 49.847 8.52842 49.7646 6.24182 52.525C6.22122 52.5662 6.20062 52.5868 6.18002 52.628C5.78862 54.1112 5.99462 55.512 6.77742 56.7892C8.01342 58.7874 10.4236 60.1264 12.4012 60.9298C9.92922 60.765 6.61262 60.971 4.44962 62.7632C2.94582 64.0198 2.24542 65.8326 2.36902 68.2428C2.36902 68.3046 2.38962 68.3664 2.43082 68.4076C6.46842 73.5988 14.42 74.5052 25.3792 71.0238C33.5986 68.4282 40.7262 64.2464 40.8086 64.2052C40.8704 64.164 40.9116 64.1022 40.9322 64.0404C40.9528 63.958 40.9528 63.9374 40.9528 63.9168ZM13.4312 41.9778C14.626 41.195 16.0268 40.9684 17.6336 41.298C26.5122 43.152 38.7486 61.4654 40.2936 63.8138C37.4714 65.4206 11.9686 79.4492 2.94582 68.078C2.86342 65.9356 3.50202 64.2464 4.84102 63.134C8.21942 60.3324 15.0174 61.7538 15.4912 61.8568H15.5118C15.656 61.898 15.8208 61.795 15.8414 61.6508C15.8826 61.5066 15.7796 61.3418 15.6354 61.3212H15.6148C15.1822 61.2182 9.33182 59.7968 7.29242 56.4596C6.61262 55.3266 6.42722 54.1112 6.73622 52.7928C9.47602 49.5586 14.1316 50.6916 16.5006 51.5774C17.3452 52.01 17.9838 52.216 18.0456 52.2366C18.1898 52.2778 18.334 52.216 18.3958 52.0718C18.437 51.9482 18.3958 51.7834 18.2722 51.7216C18.2516 51.701 17.6954 51.4126 16.8096 51.083C15.3882 50.362 13.3282 49.023 12.5866 46.9836C12.051 45.4592 12.3188 43.7906 13.4312 41.9778Z" fill="#9D432A"/>
<path d="M27.0684 72.4453C27.0684 72.4453 -0.144232 77.8631 0.288368 87.1537C8.56957 92.4891 27.0684 72.4453 27.0684 72.4453Z" fill="#2B807D"/>
<path d="M27.3568 72.4452C27.3568 72.404 27.3362 72.3422 27.3156 72.301C27.2538 72.198 27.1302 72.1362 27.0272 72.1568C25.8942 72.404 0 77.657 0 86.927V87.1536C0 87.236 0.0618 87.3184 0.1236 87.3802C3.6668 89.6668 9.3318 87.854 16.9332 82.0036C22.557 77.6982 27.2126 72.6718 27.2538 72.6306C27.3156 72.5894 27.3568 72.5276 27.3568 72.4452ZM0.5562 86.927C0.5562 79.0372 21.63 73.9284 26.2444 72.919C22.9896 76.2768 7.7662 91.356 0.5562 87.0094V86.927Z" fill="#9D432A"/>
<path d="M34.608 51.2272C34.608 51.2272 14.6054 32.0074 19.982 24.406C29.8288 24.3854 34.608 51.2272 34.608 51.2272Z" fill="#2B807D"/>
<path d="M34.8758 51.2272V51.186C34.6698 50.0736 29.9318 24.1176 19.9614 24.1382C19.879 24.1382 19.7966 24.1794 19.7348 24.2618C14.2758 31.9662 33.578 50.6504 34.402 51.4538C34.4844 51.5362 34.6286 51.5568 34.7316 51.495C34.8346 51.4126 34.8758 51.3302 34.8758 51.2272ZM20.1262 24.6738C28.531 24.9004 33.2278 45.7888 34.1548 50.3826C30.8176 47.0248 15.759 31.2864 20.1262 24.6738Z" fill="#9D432A"/>
<path d="M50.6966 66.9038C50.6966 66.8008 50.6554 66.7184 50.5524 66.6566C50.3876 66.5536 33.578 56.0888 34.8758 37.0544C34.8964 36.9102 34.7728 36.766 34.608 36.766C34.4638 36.7454 34.3196 36.869 34.3196 37.0338C32.9806 56.4184 50.0992 67.0274 50.264 67.151C50.3876 67.2334 50.573 67.1922 50.6554 67.048C50.6966 67.0068 50.6966 66.945 50.6966 66.9038ZM47.8538 71.4358C48.0178 71.4358 48.1754 71.4045 48.3268 71.3417C48.4769 71.2799 48.6132 71.1889 48.7279 71.0739C48.8428 70.9593 48.9339 70.8229 48.9957 70.6728C49.0585 70.5214 49.0898 70.3638 49.0898 70.1998C49.0901 70.0375 49.0581 69.8767 48.9957 69.7269C48.9339 69.5767 48.8428 69.4404 48.7279 69.3258C48.6132 69.2108 48.4769 69.1198 48.3268 69.058C48.1769 68.9955 48.0161 68.9635 47.8538 68.9638C47.6898 68.9638 47.5322 68.9952 47.3808 69.058C47.2307 69.1198 47.0944 69.2108 46.9797 69.3258C46.8648 69.4404 46.7737 69.5767 46.7119 69.7269C46.6495 69.8767 46.6175 70.0375 46.6178 70.1998C46.6178 70.3638 46.6491 70.5214 46.7119 70.6728C46.7737 70.8229 46.8648 70.9593 46.9797 71.0739C47.0944 71.1889 47.2307 71.2799 47.3808 71.3417C47.5322 71.4045 47.6898 71.4358 47.8538 71.4358ZM41.4472 72.1362C41.6112 72.1362 41.7688 72.1049 41.9202 72.0421C42.0703 71.9803 42.2066 71.8893 42.3213 71.7743C42.4362 71.6597 42.5273 71.5233 42.5891 71.3732C42.6519 71.2218 42.6832 71.0642 42.6832 70.9002C42.6835 70.7379 42.6515 70.5771 42.5891 70.4273C42.5273 70.2771 42.4362 70.1408 42.3213 70.0262C42.2066 69.9112 42.0703 69.8202 41.9202 69.7584C41.7703 69.6959 41.6095 69.6639 41.4472 69.6642C41.2832 69.6642 41.1256 69.6956 40.9742 69.7584C40.8241 69.8202 40.6878 69.9112 40.5731 70.0262C40.4582 70.1408 40.3671 70.2771 40.3053 70.4273C40.2429 70.5771 40.2109 70.7379 40.2112 70.9002C40.2112 71.0642 40.2425 71.2218 40.3053 71.3732C40.3671 71.5233 40.4582 71.6597 40.5731 71.7743C40.6878 71.8893 40.8241 71.9803 40.9742 72.0421C41.1256 72.1049 41.2832 72.1362 41.4472 72.1362ZM35.8234 75.2262C35.9874 75.2262 36.145 75.1949 36.2964 75.1321C36.4465 75.0703 36.5828 74.9793 36.6975 74.8643C36.8124 74.7497 36.9035 74.6133 36.9653 74.4632C37.0281 74.3118 37.0594 74.1542 37.0594 73.9902C37.0597 73.8279 37.0277 73.6671 36.9653 73.5173C36.9035 73.3671 36.8124 73.2308 36.6975 73.1162C36.5828 73.0012 36.4465 72.9102 36.2964 72.8484C36.1465 72.786 35.9857 72.754 35.8234 72.7542C35.6594 72.7542 35.5018 72.7856 35.3504 72.8484C35.2003 72.9102 35.064 73.0012 34.9493 73.1162C34.8344 73.2308 34.7433 73.3671 34.6815 73.5173C34.6191 73.6671 34.5871 73.8279 34.5874 73.9902C34.5874 74.1542 34.6187 74.3116 34.6815 74.4632C34.7433 74.6133 34.8344 74.7497 34.9493 74.8643C35.064 74.9793 35.2003 75.0703 35.3504 75.1321C35.5018 75.1949 35.6594 75.2262 35.8234 75.2262ZM31.6416 78.5016C31.8056 78.5016 31.9632 78.4703 32.1146 78.4075C32.2647 78.3457 32.401 78.2547 32.5157 78.1397C32.6306 78.0251 32.7217 77.8887 32.7835 77.7386C32.8463 77.5872 32.8776 77.4296 32.8776 77.2656C32.8779 77.1033 32.8459 76.9425 32.7835 76.7927C32.7217 76.6425 32.6306 76.5062 32.5157 76.3916C32.401 76.2766 32.2647 76.1856 32.1146 76.1238C31.9647 76.0614 31.8039 76.0294 31.6416 76.0296C31.4776 76.0296 31.32 76.061 31.1686 76.1238C31.0185 76.1856 30.8822 76.2766 30.7675 76.3916C30.6526 76.5062 30.5615 76.6425 30.4997 76.7927C30.4373 76.9425 30.4053 77.1033 30.4056 77.2656C30.4056 77.4296 30.4369 77.5872 30.4997 77.7386C30.5615 77.8887 30.6526 78.0251 30.7675 78.1397C30.8822 78.2547 31.0185 78.3457 31.1686 78.4075C31.32 78.4703 31.4776 78.5016 31.6416 78.5016ZM28.2014 84.1048C28.3654 84.1048 28.523 84.0735 28.6744 84.0107C28.8245 83.9489 28.9608 83.8579 29.0755 83.7429C29.1904 83.6283 29.2815 83.492 29.3433 83.3418C29.4061 83.1904 29.4374 83.0328 29.4374 82.8688C29.4377 82.7065 29.4057 82.5457 29.3433 82.3959C29.2815 82.2457 29.1904 82.1094 29.0755 81.9948C28.9608 81.8798 28.8245 81.7888 28.6744 81.727C28.5245 81.6646 28.3637 81.6325 28.2014 81.6328C28.0374 81.6328 27.8798 81.6642 27.7284 81.727C27.5783 81.7888 27.4419 81.8798 27.3273 81.9948C27.2124 82.1094 27.1213 82.2457 27.0595 82.3959C26.9971 82.5457 26.9651 82.7065 26.9654 82.8688C26.9654 83.0328 26.9967 83.1902 27.0595 83.3418C27.1213 83.492 27.2124 83.6283 27.3273 83.7429C27.442 83.8579 27.5783 83.9489 27.7284 84.0107C27.8798 84.0735 28.0374 84.1048 28.2014 84.1048Z" fill="#9D432A"/>
<path d="M49.5842 63.5048C49.7482 63.5048 49.9058 63.4735 50.0572 63.4107C50.2073 63.3489 50.3437 63.2579 50.4583 63.1429C50.5732 63.0283 50.6643 62.892 50.7261 62.7418C50.7889 62.5904 50.8202 62.4328 50.8202 62.2688C50.8205 62.1065 50.7885 61.9457 50.7261 61.7959C50.6643 61.6457 50.5732 61.5094 50.4583 61.3948C50.3437 61.2798 50.2073 61.1888 50.0572 61.127C49.9073 61.0646 49.7466 61.0326 49.5842 61.0328C49.4202 61.0328 49.2627 61.0642 49.1112 61.127C48.9611 61.1888 48.8248 61.2798 48.7102 61.3948C48.5952 61.5094 48.5041 61.6457 48.4424 61.7959C48.3799 61.9457 48.3479 62.1065 48.3482 62.2688C48.3482 62.4328 48.3795 62.5904 48.4424 62.7418C48.5041 62.892 48.5952 63.0283 48.7102 63.1429C48.8248 63.2579 48.9611 63.3489 49.1112 63.4107C49.2627 63.4735 49.4202 63.5048 49.5842 63.5048ZM44.8874 58.9317C45.0514 58.9317 45.209 58.9003 45.3604 58.8375C45.5105 58.7757 45.6469 58.6847 45.7615 58.5697C45.8764 58.4551 45.9675 58.3187 46.0293 58.1686C46.0921 58.0172 46.1234 57.8596 46.1234 57.6957C46.1237 57.5333 46.0917 57.3725 46.0293 57.2227C45.9675 57.0725 45.8765 56.9362 45.7615 56.8216C45.6469 56.7066 45.5105 56.6156 45.3604 56.5538C45.2105 56.4914 45.0498 56.4594 44.8874 56.4597C44.7234 56.4597 44.5659 56.491 44.4144 56.5538C44.2643 56.6156 44.128 56.7066 44.0134 56.8216C43.8984 56.9362 43.8073 57.0725 43.7456 57.2227C43.6831 57.3725 43.6511 57.5333 43.6514 57.6957C43.6514 57.8596 43.6827 58.0172 43.7456 58.1686C43.8074 58.3187 43.8984 58.4551 44.0134 58.5697C44.128 58.6847 44.2643 58.7757 44.4144 58.8375C44.5659 58.9003 44.7234 58.9317 44.8874 58.9317ZM42.3742 52.8546C42.5382 52.8546 42.6958 52.8233 42.8472 52.7605C42.9973 52.6987 43.1337 52.6077 43.2483 52.4927C43.3633 52.3781 43.4543 52.2418 43.5161 52.0916C43.5789 51.9402 43.6102 51.7826 43.6102 51.6186C43.6105 51.4563 43.5785 51.2955 43.5161 51.1457C43.4543 50.9955 43.3633 50.8592 43.2483 50.7446C43.1337 50.6296 42.9973 50.5386 42.8472 50.4768C42.6973 50.4144 42.5366 50.3824 42.3742 50.3826C42.2102 50.3826 42.0527 50.414 41.9012 50.4768C41.7511 50.5386 41.6148 50.6296 41.5002 50.7446C41.3852 50.8592 41.2941 50.9955 41.2324 51.1457C41.1699 51.2955 41.1379 51.4563 41.1382 51.6186C41.1382 51.7826 41.1695 51.9402 41.2324 52.0916C41.2941 52.2418 41.3852 52.3781 41.5002 52.4927C41.6148 52.6077 41.7511 52.6987 41.9012 52.7605C42.0527 52.8233 42.2102 52.8546 42.3742 52.8546ZM41.818 47.6635C41.982 47.6635 42.1396 47.6321 42.291 47.5693C42.4411 47.5075 42.5775 47.4165 42.6921 47.3015C42.8071 47.1869 42.8981 47.0506 42.9599 46.9004C43.0227 46.749 43.054 46.5914 43.054 46.4275C43.0543 46.2651 43.0223 46.1043 42.9599 45.9545C42.8981 45.8043 42.8071 45.668 42.6921 45.5534C42.5775 45.4384 42.4411 45.3474 42.291 45.2856C42.1411 45.2232 41.9804 45.1912 41.818 45.1915C41.654 45.1915 41.4964 45.2228 41.345 45.2856C41.1949 45.3474 41.0586 45.4384 40.944 45.5534C40.829 45.668 40.7379 45.8043 40.6762 45.9545C40.6137 46.1043 40.5817 46.2651 40.582 46.4275C40.582 46.5914 40.6133 46.749 40.6762 46.9004C40.7379 47.0506 40.829 47.1869 40.944 47.3015C41.0586 47.4165 41.1949 47.5075 41.345 47.5693C41.4964 47.6321 41.654 47.6635 41.818 47.6635ZM40.376 39.8355C40.54 39.8355 40.6976 39.8041 40.849 39.7413C40.9991 39.6795 41.1355 39.5885 41.2501 39.4735C41.3651 39.3589 41.4561 39.2226 41.5179 39.0724C41.5807 38.921 41.612 38.7634 41.612 38.5995C41.6123 38.4371 41.5803 38.2763 41.5179 38.1265C41.4561 37.9763 41.3651 37.84 41.2501 37.7254C41.1355 37.6104 40.9991 37.5194 40.849 37.4576C40.6991 37.3952 40.5384 37.3632 40.376 37.3635C40.212 37.3635 40.0544 37.3948 39.903 37.4576C39.7529 37.5194 39.6166 37.6104 39.502 37.7254C39.387 37.84 39.2959 37.9763 39.2342 38.1265C39.1717 38.2763 39.1397 38.4371 39.14 38.5995C39.14 38.7634 39.1713 38.921 39.2342 39.0724C39.2959 39.2226 39.387 39.3589 39.502 39.4735C39.6166 39.5885 39.7529 39.6795 39.903 39.7413C40.0544 39.8041 40.212 39.8355 40.376 39.8355Z" fill="#9D432A"/>
<path d="M22.5364 92.489C23.0369 92.4893 23.5326 92.3907 23.9949 92.199C24.4573 92.0077 24.8774 91.727 25.2311 91.3729C25.5851 91.0192 25.8659 90.599 26.0571 90.1365C26.249 89.6742 26.3476 89.1786 26.3474 88.678C26.3477 88.1775 26.2491 87.6819 26.0574 87.2196C25.8661 86.7571 25.5854 86.3369 25.2313 85.9831C24.8775 85.6291 24.4574 85.3484 23.9949 85.1571C23.5326 84.9653 23.0369 84.8668 22.5364 84.867C22.0359 84.8668 21.5403 84.9653 21.0779 85.1571C20.6155 85.3484 20.1954 85.6291 19.8417 85.9831C19.4877 86.3369 19.2069 86.7571 19.0157 87.2196C18.8238 87.6819 18.7252 88.1775 18.7254 88.678C18.7251 89.1785 18.8237 89.6742 19.0155 90.1365C19.2068 90.5989 19.4875 91.019 19.8415 91.3727C20.1953 91.7268 20.6154 92.0075 21.0779 92.1988C21.5402 92.3906 22.0359 92.4892 22.5364 92.489Z" fill="#C2A576"/>
<path d="M26.6358 88.6986C26.6358 88.5544 26.6358 88.4102 26.6152 88.2454C26.368 86 24.3492 84.3726 22.1038 84.6198C19.8584 84.867 18.231 86.9064 18.4782 89.1312C18.7254 91.3766 20.7442 93.004 22.9896 92.7568C25.0702 92.5302 26.6358 90.7586 26.6358 88.6986ZM18.9932 88.678C18.9932 86.9064 20.3322 85.3614 22.145 85.1554C24.0814 84.9494 25.8324 86.3502 26.0384 88.2866C26.2444 90.2024 24.8436 91.974 22.9072 92.18C20.9708 92.386 19.2198 90.9852 19.0138 89.0488C19.0138 88.9458 18.9932 88.8222 18.9932 88.678Z" fill="#9D432A"/>
<path d="M37.5538 31.9868C38.0543 31.9871 38.55 31.8885 39.0123 31.6968C39.4747 31.5055 39.8948 31.2248 40.2485 30.8707C40.6025 30.517 40.8833 30.0968 41.0745 29.6343C41.2664 29.172 41.365 28.6764 41.3648 28.1758C41.3651 27.6753 41.2665 27.1797 41.0748 26.7174C40.8834 26.2549 40.6027 25.8348 40.2487 25.4812C39.8949 25.1271 39.4748 24.8464 39.0123 24.6551C38.55 24.4633 38.0543 24.3646 37.5538 24.3648C37.0533 24.3646 36.5576 24.4631 36.0953 24.6549C35.6329 24.8462 35.2128 25.1269 34.8591 25.4809C34.5051 25.8347 34.2243 26.2549 34.0331 26.7174C33.8412 27.1797 33.7426 27.6753 33.7428 28.1758C33.7425 28.6763 33.8411 29.172 34.0328 29.6343C34.2242 30.0967 34.5049 30.5168 34.8589 30.8705C35.2127 31.2246 35.6328 31.5053 36.0953 31.6966C36.5576 31.8884 37.0533 31.987 37.5538 31.9868Z" fill="#C2A576"/>
<path d="M41.6532 28.1759C41.6532 28.0317 41.6532 27.8875 41.6326 27.7227C41.3854 25.4773 39.3666 23.8499 37.1212 24.0971C34.8758 24.3443 33.269 26.3631 33.4956 28.6085C33.7428 30.8539 35.7616 32.4813 38.007 32.2341C40.0876 32.0281 41.6532 30.2565 41.6532 28.1759ZM34.0106 28.1759C34.0106 26.4043 35.3496 24.8593 37.1624 24.6533C39.0988 24.4473 40.8498 25.8481 41.0558 27.7845C41.2618 29.7003 39.861 31.4719 37.9246 31.6779C35.9882 31.8839 34.2372 30.4831 34.0312 28.5467C34.0106 28.4437 34.0106 28.2995 34.0106 28.1759ZM40.9528 63.9169C40.9528 63.7727 40.8498 63.6697 40.7262 63.6491L27.2744 60.6003C27.1302 60.5591 26.9654 60.6621 26.9448 60.8063C26.9036 60.9505 27.0066 61.1153 27.1508 61.1359L39.5108 63.9375C36.2354 64.8233 26.3886 67.2953 22.7424 66.4301C22.5982 66.3889 22.4334 66.4919 22.4128 66.6361C22.3716 66.7803 22.4746 66.9451 22.6188 66.9657C27.1302 68.0575 40.1906 64.3289 40.7468 64.1847C40.8704 64.1435 40.9528 64.0405 40.9528 63.9169Z" fill="#9D432A"/>
<path d="M40.376 63.7932V63.7726C39.9846 59.9204 26.6358 52.525 26.0796 52.216C25.9354 52.1336 25.7706 52.1954 25.7088 52.319C25.6264 52.4632 25.6882 52.628 25.8118 52.6898C25.956 52.7722 39.449 60.25 39.8198 63.8138C39.8404 63.9786 39.964 64.0816 40.1288 64.061C40.2524 64.0404 40.376 63.9168 40.376 63.7932ZM27.3568 72.4452C27.3568 72.404 27.3362 72.3628 27.3156 72.3216C27.2332 72.1774 27.0684 72.1362 26.9448 72.198L7.82802 82.4156C7.70442 82.498 7.64262 82.6628 7.70442 82.7864C7.78682 82.9306 7.95162 82.9718 8.07522 82.91L27.192 72.6924C27.295 72.6512 27.3568 72.5482 27.3568 72.4452ZM34.8758 51.2272C34.8758 51.186 34.8758 51.1448 34.8552 51.1036L24.2668 30.4418C24.205 30.2976 24.0196 30.2564 23.896 30.3182C23.7518 30.38 23.7106 30.5448 23.7724 30.689L34.3608 51.3508C34.4226 51.495 34.608 51.5362 34.7316 51.4744C34.8346 51.4126 34.8758 51.3302 34.8758 51.2272ZM68.8246 66.121C68.8246 66.121 40.376 58.9316 44.8874 34.6236C65.0548 36.6012 68.8246 66.121 68.8246 66.121Z" fill="#9D432A"/>
<path d="M69.0924 66.121V66.0798C69.0924 65.9974 68.1036 58.5608 64.6634 51.0006C60.0902 40.9272 53.251 35.1593 44.908 34.3353C44.7638 34.3147 44.6402 34.4176 44.599 34.5618C40.1082 58.8698 68.4744 66.327 68.7628 66.4094C68.8452 66.43 68.9482 66.4095 69.01 66.3477C69.0718 66.2859 69.0924 66.2034 69.0924 66.121ZM45.114 34.9326C55.2492 36.0656 61.0584 44.3881 64.169 51.2272C67.1148 57.6957 68.2478 64.0816 68.495 65.7502C65.0342 64.7408 41.2412 56.9334 45.114 34.9326Z" fill="#9D432A"/>
<path d="M49.9344 46.2215C50.4349 46.2217 50.9306 46.1231 51.3929 45.9314C51.8553 45.7401 52.2754 45.4594 52.6291 45.1054C52.9831 44.7516 53.2639 44.3314 53.4552 43.8689C53.647 43.4066 53.7456 42.911 53.7454 42.4105C53.7457 41.9099 53.6471 41.4143 53.4554 40.952C53.2641 40.4896 52.9833 40.0695 52.6293 39.7158C52.2756 39.3617 51.8554 39.081 51.3929 38.8897C50.9306 38.6979 50.4349 38.5993 49.9344 38.5995C49.4339 38.5992 48.9383 38.6978 48.4759 38.8895C48.0135 39.0808 47.5934 39.3615 47.2397 39.7156C46.8857 40.0693 46.605 40.4895 46.4137 40.952C46.2219 41.4143 46.1232 41.9099 46.1234 42.4105C46.1231 42.911 46.2217 43.4066 46.4135 43.8689C46.6048 44.3314 46.8855 44.7515 47.2395 45.1051C47.5933 45.4592 48.0134 45.7399 48.4759 45.9312C48.9383 46.123 49.4339 46.2217 49.9344 46.2215Z" fill="#C2A576"/>
<path d="M54.0338 42.4105C54.0338 42.2663 54.0338 42.1015 54.0132 41.9573C53.8896 40.8655 53.354 39.8973 52.5094 39.1969C51.6648 38.5171 50.5936 38.2081 49.5018 38.3111C47.2564 38.5583 45.629 40.5771 45.8762 42.8225C46.1234 45.0679 48.1422 46.6953 50.3876 46.4481C51.4794 46.3245 52.4476 45.7889 53.148 44.9443C53.7248 44.2439 54.0338 43.3581 54.0338 42.4105ZM46.3912 42.4105C46.3912 40.6389 47.7302 39.0939 49.543 38.8879C50.4906 38.7849 51.397 39.0527 52.1386 39.6501C52.8802 40.2475 53.3334 41.0921 53.4364 42.0191C53.5394 42.9461 53.2716 43.8731 52.6742 44.6147C52.0768 45.3563 51.2322 45.8095 50.3052 45.9125C48.3688 46.1185 46.6178 44.7177 46.4118 42.7813C46.4118 42.6577 46.3912 42.5341 46.3912 42.4105Z" fill="#9D432A"/>
<path d="M53.0244 48.9406C53.1911 48.9406 53.3513 48.9087 53.5052 48.8451C53.6579 48.7822 53.7966 48.6895 53.9131 48.5725C54.03 48.456 54.1226 48.3175 54.1854 48.1649C54.2489 48.0125 54.2814 47.8491 54.281 47.684C54.2814 47.519 54.2489 47.3556 54.1854 47.2032C54.1226 47.0506 54.0299 46.9119 53.9129 46.7954C53.7964 46.6785 53.6578 46.5859 53.5052 46.523C53.3529 46.4596 53.1894 46.4271 53.0244 46.4274C52.8578 46.4274 52.6975 46.4594 52.5436 46.523C52.3895 46.5869 52.2538 46.6775 52.1357 46.7956C52.0188 46.9121 51.9263 47.0506 51.8634 47.2032C51.8 47.3556 51.7675 47.519 51.7678 47.684C51.7678 47.8507 51.7998 48.011 51.8634 48.1649C51.9273 48.3189 52.0179 48.4547 52.1359 48.5727C52.2524 48.6896 52.391 48.7822 52.5436 48.8451C52.6975 48.9089 52.8578 48.9406 53.0244 48.9406Z" fill="#C2A576"/>
<path d="M54.5694 47.6841V47.5193C54.487 46.6747 53.7249 46.0567 52.8803 46.1597C52.0357 46.2627 51.4383 47.0043 51.5207 47.8489C51.5619 48.2609 51.7678 48.6317 52.0974 48.8789C52.427 49.1467 52.8184 49.2497 53.2304 49.2085C53.6424 49.1673 54.0132 48.9613 54.2604 48.6523C54.4458 48.3639 54.5694 48.0343 54.5694 47.6841ZM52.0357 47.6841C52.0357 47.1897 52.4064 46.7571 52.9214 46.7159C53.457 46.6541 53.9515 47.0455 53.9927 47.5811C54.0339 47.8489 53.9515 48.0961 53.7867 48.3021C53.6219 48.5081 53.3952 48.6317 53.1274 48.6729C52.8596 48.6935 52.6124 48.6317 52.4064 48.4669C52.2004 48.3021 52.0768 48.0755 52.0562 47.8077C52.0356 47.7459 52.0357 47.7047 52.0357 47.6841Z" fill="#9D432A"/>
<path d="M77.8062 56.7275C77.8799 56.7275 77.9508 56.7133 78.019 56.685C78.0872 56.6568 78.1473 56.6166 78.1994 56.5645C78.2512 56.513 78.2921 56.4516 78.32 56.3841C78.3482 56.3161 78.3624 56.245 78.3624 56.1713C78.3624 56.0975 78.3482 56.0267 78.32 55.9585C78.2921 55.8909 78.2512 55.8296 78.1994 55.778C78.1479 55.7262 78.0866 55.6852 78.019 55.6573C77.9516 55.6292 77.8792 55.6149 77.8062 55.6151C77.7324 55.6151 77.6616 55.6291 77.5934 55.6573C77.5252 55.6855 77.4651 55.7259 77.4129 55.778C77.3608 55.8301 77.3204 55.8903 77.2922 55.9585C77.264 56.0265 77.25 56.0975 77.25 56.1713C77.25 56.245 77.264 56.3159 77.2922 56.3841C77.3204 56.4523 77.3608 56.5124 77.4129 56.5645C77.4651 56.6166 77.5252 56.6568 77.5934 56.685C77.6614 56.7133 77.7324 56.7275 77.8062 56.7275ZM78.3624 53.9877C78.4361 53.9877 78.507 53.9735 78.5752 53.9452C78.6434 53.917 78.7035 53.8768 78.7556 53.8247C78.8074 53.7731 78.8483 53.7118 78.8762 53.6443C78.9044 53.5763 78.9186 53.5052 78.9186 53.4315C78.9186 53.3577 78.9044 53.2869 78.8762 53.2187C78.8483 53.1511 78.8074 53.0898 78.7556 53.0382C78.7041 52.9864 78.6428 52.9454 78.5752 52.9175C78.5078 52.8895 78.4354 52.8751 78.3624 52.8753C78.2886 52.8753 78.2176 52.8895 78.1496 52.9177C78.0814 52.9459 78.0213 52.9861 77.9691 53.0382C77.917 53.0903 77.8766 53.1505 77.8484 53.2187C77.8202 53.2866 77.8062 53.3577 77.8062 53.4315C77.8062 53.5052 77.8202 53.5761 77.8484 53.6443C77.8766 53.7125 77.917 53.7726 77.9691 53.8247C78.0213 53.8768 78.0814 53.917 78.1496 53.9452C78.2176 53.9735 78.2886 53.9877 78.3624 53.9877ZM78.9186 51.6393C78.9923 51.6393 79.0632 51.6251 79.1314 51.5968C79.1996 51.5686 79.2597 51.5284 79.3118 51.4763C79.3636 51.4248 79.4045 51.3634 79.4324 51.2959C79.4606 51.2279 79.4748 51.1568 79.4748 51.0831C79.4748 51.0093 79.4606 50.9385 79.4324 50.8703C79.4045 50.8027 79.3636 50.7414 79.3118 50.6898C79.2603 50.6381 79.1989 50.5971 79.1314 50.5693C79.064 50.5412 78.9916 50.5268 78.9186 50.5269C78.8448 50.5269 78.7738 50.5409 78.7058 50.5693C78.6376 50.5975 78.5775 50.6377 78.5253 50.6898C78.4732 50.7419 78.4328 50.8021 78.4048 50.8703C78.3766 50.9383 78.3624 51.0093 78.3624 51.0831C78.3624 51.1568 78.3766 51.2277 78.4048 51.2959C78.4328 51.3641 78.4732 51.4242 78.5253 51.4763C78.5775 51.5284 78.6376 51.5686 78.7058 51.5968C78.7738 51.6251 78.8448 51.6393 78.9186 51.6393ZM79.6602 49.4969C79.7339 49.4969 79.8048 49.4827 79.873 49.4544C79.9412 49.4262 80.0013 49.386 80.0534 49.3339C80.1052 49.2823 80.1461 49.221 80.174 49.1535C80.2022 49.0855 80.2164 49.0144 80.2164 48.9407C80.2164 48.8669 80.2022 48.7961 80.174 48.7279C80.1461 48.6603 80.1052 48.599 80.0534 48.5474C80.0019 48.4956 79.9406 48.4546 79.873 48.4267C79.8056 48.3987 79.7332 48.3843 79.6602 48.3845C79.5864 48.3845 79.5156 48.3985 79.4474 48.4267C79.3792 48.4549 79.3191 48.4953 79.2669 48.5474C79.2148 48.5995 79.1744 48.6597 79.1464 48.7279C79.1182 48.7959 79.104 48.8669 79.104 48.9407C79.104 49.0144 79.1182 49.0853 79.1464 49.1535C79.1744 49.2217 79.2148 49.2818 79.2669 49.3339C79.3191 49.386 79.3792 49.4262 79.4474 49.4544C79.5154 49.4827 79.5864 49.4969 79.6602 49.4969ZM80.4636 46.9631C80.5373 46.9631 80.6082 46.9489 80.6764 46.9206C80.7446 46.8924 80.8047 46.8522 80.8568 46.8001C80.9086 46.7486 80.9495 46.6872 80.9774 46.6197C81.0056 46.5517 81.0198 46.4806 81.0198 46.4069C81.0198 46.3331 81.0056 46.2623 80.9774 46.1941C80.9495 46.1265 80.9086 46.0652 80.8568 46.0136C80.8053 45.9618 80.744 45.9208 80.6764 45.8929C80.609 45.8649 80.5366 45.8505 80.4636 45.8507C80.3898 45.8507 80.3188 45.8647 80.2508 45.8929C80.1826 45.9213 80.1225 45.9615 80.0703 46.0136C80.0182 46.0657 79.9778 46.1259 79.9498 46.1941C79.9216 46.2621 79.9074 46.3331 79.9074 46.4069C79.9074 46.4806 79.9216 46.5515 79.9498 46.6197C79.9778 46.6879 80.0182 46.748 80.0703 46.8001C80.1225 46.8522 80.1826 46.8924 80.2508 46.9206C80.3188 46.9489 80.3898 46.9631 80.4636 46.9631ZM81.6996 44.8207C81.7733 44.8207 81.8442 44.8065 81.9124 44.7782C81.9806 44.75 82.0407 44.7098 82.0928 44.6577C82.1446 44.6061 82.1855 44.5448 82.2134 44.4773C82.2416 44.4093 82.2558 44.3382 82.2558 44.2645C82.2558 44.1907 82.2416 44.1199 82.2134 44.0517C82.1855 43.9841 82.1446 43.9228 82.0928 43.8712C82.0413 43.8194 81.9799 43.7784 81.9124 43.7505C81.845 43.7225 81.7726 43.7081 81.6996 43.7083C81.6258 43.7083 81.5548 43.7225 81.4868 43.7507C81.4186 43.7789 81.3585 43.8191 81.3063 43.8712C81.2542 43.9233 81.214 43.9835 81.1858 44.0517C81.1576 44.1196 81.1434 44.1907 81.1434 44.2645C81.1434 44.3382 81.1576 44.4091 81.1858 44.4773C81.2138 44.5455 81.2542 44.6056 81.3063 44.6577C81.3585 44.7098 81.4186 44.75 81.4868 44.7782C81.5548 44.8065 81.6258 44.8207 81.6996 44.8207ZM56.238 52.8753C56.4046 52.8753 56.5649 52.8433 56.7188 52.7797C56.8715 52.7168 57.0101 52.6242 57.1267 52.5071C57.2436 52.3907 57.3362 52.2521 57.399 52.0995C57.4624 51.9471 57.4949 51.7837 57.4946 51.6187C57.4949 51.4536 57.4624 51.2902 57.399 51.1379C57.3361 50.9852 57.2435 50.8465 57.1265 50.73C57.01 50.6131 56.8714 50.5205 56.7188 50.4577C56.5664 50.3942 56.403 50.3617 56.238 50.3621C56.0713 50.3621 55.9111 50.394 55.7572 50.4577C55.6031 50.5215 55.4673 50.6122 55.3493 50.7302C55.2324 50.8467 55.1398 50.9853 55.077 51.1379C55.0136 51.2902 54.9811 51.4536 54.9814 51.6187C54.9814 51.7853 55.0133 51.9456 55.077 52.0995C55.1408 52.2536 55.2315 52.3893 55.3495 52.5074C55.466 52.6243 55.6046 52.7168 55.7572 52.7797C55.9111 52.8435 56.0713 52.8753 56.238 52.8753Z" fill="#C2A576"/>
<path d="M57.783 51.6187V51.4539C57.7418 51.0419 57.5358 50.6711 57.2268 50.4239C56.8972 50.1561 56.5058 50.0531 56.0938 50.0943C55.6818 50.1355 55.311 50.3415 55.0638 50.6505C54.796 50.9801 54.693 51.3715 54.7342 51.7835C54.8166 52.6281 55.5788 53.2461 56.4234 53.1431C56.8354 53.1019 57.2062 52.8959 57.4534 52.5869C57.6594 52.3191 57.783 51.9689 57.783 51.6187ZM55.2492 51.6187C55.2492 51.3921 55.3316 51.1861 55.4758 51.0007C55.6406 50.7947 55.8672 50.6711 56.135 50.6299C56.4028 50.6093 56.65 50.6711 56.856 50.8359C57.062 51.0007 57.1856 51.2273 57.2268 51.4951C57.268 51.7629 57.1856 52.0101 57.0208 52.2161C56.856 52.4221 56.6294 52.5457 56.3616 52.5869C56.0938 52.6075 55.8466 52.5457 55.6406 52.3809C55.4346 52.2161 55.311 51.9895 55.2904 51.7217C55.2492 51.7011 55.2492 51.6599 55.2492 51.6187Z" fill="#9D432A"/>
<path d="M59.2662 56.4597C59.4328 56.4597 59.5931 56.4277 59.747 56.3641C59.8997 56.3012 60.0383 56.2086 60.1549 56.0916C60.2718 55.9751 60.3643 55.8365 60.4272 55.6839C60.4906 55.5315 60.5231 55.3681 60.5228 55.2031C60.5231 55.0381 60.4906 54.8746 60.4272 54.7223C60.3643 54.5696 60.2717 54.4309 60.1547 54.3144C60.0382 54.1975 59.8996 54.1049 59.747 54.0421C59.5946 53.9786 59.4312 53.9461 59.2662 53.9465C59.0995 53.9465 58.9393 53.9784 58.7854 54.0421C58.6313 54.1059 58.4955 54.1966 58.3775 54.3146C58.2606 54.4311 58.168 54.5697 58.1052 54.7223C58.0417 54.8746 58.0093 55.0381 58.0096 55.2031C58.0096 55.3697 58.0415 55.53 58.1052 55.6839C58.169 55.838 58.2597 55.9737 58.3777 56.0918C58.4942 56.2087 58.6328 56.3012 58.7854 56.3641C58.9393 56.4279 59.0995 56.4597 59.2662 56.4597Z" fill="#C2A576"/>
<path d="M60.8112 55.2031V55.0383C60.7288 54.1937 59.9666 53.5757 59.122 53.6787C58.71 53.7199 58.3392 53.9259 58.092 54.2555C57.8448 54.5645 57.7212 54.9765 57.7624 55.3885C57.8036 55.8005 58.0096 56.1713 58.3186 56.4185C58.6482 56.6863 59.0396 56.7893 59.4516 56.7481C60.2344 56.6451 60.8112 55.9859 60.8112 55.2031ZM58.298 55.2031C58.298 54.9765 58.3804 54.7705 58.5246 54.5851C58.6894 54.3791 58.916 54.2555 59.1838 54.2143C59.7194 54.1525 60.2138 54.5439 60.2756 55.0795C60.3374 55.5945 59.946 56.1095 59.4104 56.1507C59.1426 56.1713 58.8954 56.1095 58.6894 55.9447C58.4834 55.7799 58.3598 55.5533 58.3186 55.2855C58.298 55.2649 58.298 55.2443 58.298 55.2031Z" fill="#9D432A"/>
<path d="M62.0472 60.2088C62.2138 60.2088 62.3741 60.1769 62.528 60.1133C62.6807 60.0504 62.8193 59.9577 62.9359 59.8407C63.0528 59.7242 63.1453 59.5857 63.2082 59.4331C63.2716 59.2807 63.3041 59.1173 63.3038 58.9522C63.3041 58.7872 63.2716 58.6238 63.2082 58.4714C63.1453 58.3188 63.0527 58.1801 62.9357 58.0636C62.8192 57.9467 62.6806 57.8541 62.528 57.7912C62.3756 57.7278 62.2122 57.6953 62.0472 57.6957C61.8805 57.6957 61.7203 57.7276 61.5664 57.7912C61.4123 57.8551 61.2765 57.9457 61.1585 58.0638C61.0416 58.1803 60.949 58.3188 60.8862 58.4714C60.8228 58.6238 60.7903 58.7872 60.7906 58.9522C60.7906 59.1189 60.8225 59.2792 60.8862 59.4331C60.95 59.5871 61.0407 59.7229 61.1587 59.8409C61.2752 59.9578 61.4138 60.0504 61.5664 60.1133C61.7203 60.1771 61.8805 60.2088 62.0472 60.2088Z" fill="#C2A576"/>
<path d="M63.5922 58.9316V58.7668C63.551 58.3548 63.345 57.984 63.036 57.7368C62.7064 57.469 62.315 57.366 61.903 57.4072C61.491 57.4484 61.1202 57.6544 60.873 57.9634C60.6052 58.293 60.5022 58.6844 60.5434 59.0964C60.6258 59.941 61.388 60.559 62.2326 60.456C62.9948 60.3942 63.5922 59.7144 63.5922 58.9316ZM61.0584 58.9316C61.0584 58.705 61.1408 58.499 61.285 58.3136C61.4498 58.1076 61.6764 57.984 61.9442 57.9428C62.4798 57.881 62.9742 58.2724 63.036 58.808C63.0978 59.323 62.7064 59.838 62.1708 59.8998C61.6352 59.9616 61.1408 59.5702 61.079 59.0346C61.0584 59.014 61.0584 58.9728 61.0584 58.9316Z" fill="#9D432A"/>
<path d="M65.6522 64.3494C65.8189 64.3494 65.9792 64.3175 66.133 64.2539C66.2857 64.191 66.4244 64.0983 66.5409 63.9813C66.6578 63.8648 66.7504 63.7263 66.8132 63.5737C66.8767 63.4213 66.9091 63.2579 66.9088 63.0928C66.9091 62.9278 66.8767 62.7644 66.8132 62.612C66.7504 62.4594 66.6577 62.3207 66.5407 62.2042C66.4242 62.0873 66.2856 61.9947 66.133 61.9318C65.9807 61.8684 65.8173 61.8359 65.6522 61.8362C65.4856 61.8362 65.3253 61.8682 65.1714 61.9318C65.0173 61.9957 64.8816 62.0863 64.7635 62.2044C64.6466 62.3209 64.5541 62.4594 64.4912 62.612C64.4278 62.7644 64.3953 62.9278 64.3956 63.0928C64.3956 63.2595 64.4276 63.4198 64.4912 63.5737C64.5551 63.7277 64.6457 63.8635 64.7638 63.9815C64.8803 64.0984 65.0188 64.191 65.1714 64.2539C65.3253 64.3177 65.4856 64.3494 65.6522 64.3494Z" fill="#C2A576"/>
<path d="M67.1972 63.0929V62.9281C67.1148 62.0835 66.3526 61.4655 65.508 61.5685C64.6634 61.6715 64.0454 62.4543 64.1484 63.2577C64.1896 63.6697 64.3956 64.0405 64.7046 64.2877C65.0136 64.5555 65.4256 64.6585 65.8376 64.6173C66.2496 64.5761 66.6204 64.3701 66.8676 64.0611C67.0736 63.7727 67.1972 63.4431 67.1972 63.0929ZM64.684 63.0929C64.684 62.8663 64.7664 62.6603 64.9106 62.4749C65.0754 62.2689 65.302 62.1453 65.5698 62.1041C66.1054 62.0423 66.5998 62.4337 66.6616 62.9693C66.7028 63.2371 66.6204 63.4843 66.4556 63.6903C66.2908 63.8963 66.0642 64.0199 65.7964 64.0611C65.5286 64.0817 65.2814 64.0199 65.0754 63.8551C64.8694 63.6903 64.7458 63.4637 64.7046 63.1959C64.684 63.1547 64.684 63.1135 64.684 63.0929Z" fill="#9D432A"/>
<path d="M87.035 43.5847C87.3623 43.5848 87.6865 43.5203 87.9888 43.3949C88.2913 43.2698 88.5662 43.0862 88.7976 42.8546C89.0291 42.6232 89.2128 42.3484 89.3379 42.0458C89.4633 41.7435 89.5278 41.4194 89.5276 41.0921C89.5278 40.7647 89.4633 40.4406 89.3379 40.1383C89.2128 39.8358 89.0291 39.5609 88.7976 39.3295C88.5662 39.0979 88.2913 38.9143 87.9888 38.7892C87.6865 38.6638 87.3623 38.5993 87.035 38.5995C86.7077 38.5993 86.3836 38.6638 86.0812 38.7892C85.7787 38.9143 85.5039 39.0979 85.2725 39.3295C85.0409 39.5609 84.8573 39.8357 84.7321 40.1383C84.6068 40.4406 84.5423 40.7647 84.5424 41.0921C84.5423 41.4194 84.6067 41.7435 84.7321 42.0458C84.8573 42.3484 85.0409 42.6232 85.2725 42.8546C85.5039 43.0862 85.7787 43.2698 86.0812 43.3949C86.3836 43.5203 86.7077 43.5848 87.035 43.5847Z" fill="#C2A576"/>
<path d="M73.3772 75.2057C73.3772 75.2057 50.3258 67.1511 47.7096 76.8743C45.9792 83.2809 55.7024 83.2191 54.5076 76.5447C53.869 73.1457 73.3772 75.2057 73.3772 75.2057Z" fill="#9D432A"/>
<path d="M73.645 75.2262C73.645 75.1026 73.5626 74.9996 73.4596 74.9584C72.8004 74.7318 57.4328 69.417 50.4906 73.0838C48.9044 73.9284 47.8744 75.185 47.4418 76.8124C46.9268 78.687 47.3388 80.2938 48.5542 81.2002C49.7902 82.1066 51.603 82.1478 53.0038 81.3032C54.5076 80.3762 55.1462 78.6458 54.7754 76.524C54.7342 76.3386 54.796 76.1944 54.9402 76.0296C56.6706 74.1756 68.8246 75.0202 73.3566 75.494C73.5008 75.5146 73.6244 75.4116 73.6656 75.2674C73.645 75.2674 73.645 75.2262 73.645 75.2262ZM47.7714 78.3368C47.7714 77.9042 47.8332 77.451 47.9774 76.9566C48.3688 75.4734 49.3164 74.3404 50.7584 73.5782C55.8466 70.9002 66.0436 73.331 70.7816 74.7112C66.0024 74.3198 56.2586 73.7842 54.5282 75.6588C54.281 75.9266 54.1574 76.2562 54.2398 76.627C54.5694 78.481 54.0338 80.026 52.736 80.8294C51.5412 81.571 49.9756 81.5504 48.925 80.7676C48.1628 80.1908 47.7714 79.3668 47.7714 78.3368Z" fill="#9D432A"/>
<path d="M68.1242 74.7319C68.198 74.7319 68.2688 74.7176 68.337 74.6894C68.4052 74.6612 68.4654 74.621 68.5175 74.5689C68.5692 74.5173 68.6102 74.456 68.638 74.3885C68.6662 74.3205 68.6804 74.2494 68.6804 74.1757C68.6804 74.1019 68.6662 74.031 68.638 73.9629C68.6102 73.8953 68.5692 73.834 68.5175 73.7824C68.4659 73.7306 68.4046 73.6896 68.337 73.6617C68.2696 73.6336 68.1973 73.6193 68.1242 73.6195C68.0505 73.6195 67.9796 73.6335 67.9114 73.6619C67.8433 73.6899 67.7831 73.7303 67.731 73.7824C67.6789 73.8345 67.6385 73.8947 67.6103 73.9629C67.582 74.0308 67.568 74.1019 67.568 74.1757C67.568 74.2494 67.582 74.3203 67.6103 74.3885C67.6385 74.4566 67.6789 74.5168 67.731 74.5689C67.7831 74.621 67.8433 74.6612 67.9114 74.6894C67.9794 74.7176 68.0505 74.7319 68.1242 74.7319ZM65.3638 74.3405C65.4376 74.3405 65.5084 74.3262 65.5766 74.298C65.6448 74.2698 65.705 74.2296 65.7571 74.1775C65.8088 74.1259 65.8498 74.0646 65.8776 73.9971C65.9058 73.9291 65.92 73.858 65.92 73.7843C65.92 73.7105 65.9058 73.6396 65.8776 73.5715C65.8498 73.5039 65.8088 73.4426 65.7571 73.391C65.7055 73.3392 65.6442 73.2982 65.5766 73.2703C65.5092 73.2422 65.4369 73.2279 65.3638 73.2281C65.2901 73.2281 65.2192 73.2421 65.151 73.2703C65.0829 73.2985 65.0227 73.3389 64.9706 73.391C64.9185 73.4431 64.8781 73.5033 64.8499 73.5715C64.8216 73.6394 64.8076 73.7105 64.8076 73.7843C64.8076 73.858 64.8216 73.9289 64.8499 73.9971C64.8781 74.0652 64.9185 74.1254 64.9706 74.1775C65.0227 74.2296 65.0829 74.2698 65.151 74.298C65.219 74.3262 65.2901 74.3405 65.3638 74.3405ZM62.9536 74.0521C63.0274 74.0521 63.0982 74.0378 63.1664 74.0096C63.2346 73.9814 63.2948 73.9412 63.3469 73.8891C63.3986 73.8375 63.4396 73.7762 63.4674 73.7087C63.4956 73.6407 63.5098 73.5696 63.5098 73.4959C63.5098 73.4221 63.4956 73.351 63.4674 73.2831C63.4396 73.2155 63.3986 73.1542 63.3469 73.1026C63.2953 73.0508 63.234 73.0098 63.1664 72.9819C63.099 72.9538 63.0267 72.9395 62.9536 72.9397C62.8799 72.9397 62.8088 72.9537 62.7408 72.9819C62.6726 73.0101 62.6125 73.0505 62.5604 73.1026C62.5083 73.1547 62.4679 73.2149 62.4399 73.2831C62.4116 73.351 62.3974 73.4221 62.3974 73.4959C62.3974 73.5696 62.4116 73.6405 62.4399 73.7087C62.4679 73.7768 62.5083 73.837 62.5604 73.8891C62.6125 73.9412 62.6726 73.9814 62.7408 74.0096C62.8088 74.0378 62.8799 74.0521 62.9536 74.0521ZM60.7082 74.0315C60.782 74.0315 60.8528 74.0172 60.921 73.989C60.9892 73.9608 61.0494 73.9206 61.1015 73.8685C61.1532 73.8169 61.1942 73.7556 61.222 73.6881C61.2502 73.6201 61.2644 73.549 61.2644 73.4753C61.2644 73.4015 61.2502 73.3306 61.222 73.2625C61.1942 73.1949 61.1532 73.1336 61.1015 73.082C61.0499 73.0302 60.9886 72.9892 60.921 72.9613C60.8536 72.9332 60.7813 72.9189 60.7082 72.9191C60.6345 72.9191 60.5636 72.9331 60.4954 72.9613C60.4273 72.9895 60.3671 73.0299 60.315 73.082C60.2629 73.1341 60.2225 73.1943 60.1945 73.2625C60.1662 73.3304 60.152 73.4015 60.152 73.4753C60.152 73.549 60.1662 73.6199 60.1945 73.6881C60.2225 73.7562 60.2629 73.8164 60.315 73.8685C60.3671 73.9206 60.4273 73.9608 60.4954 73.989C60.5634 74.0172 60.6345 74.0315 60.7082 74.0315ZM58.0508 73.9285C58.1246 73.9285 58.1954 73.9142 58.2636 73.886C58.3318 73.8578 58.392 73.8176 58.4441 73.7655C58.4958 73.7139 58.5368 73.6526 58.5646 73.5851C58.5928 73.5171 58.607 73.446 58.607 73.3723C58.607 73.2985 58.5928 73.2274 58.5646 73.1595C58.5368 73.0919 58.4958 73.0306 58.4441 72.979C58.3925 72.9272 58.3312 72.8861 58.2636 72.8583C58.1962 72.8302 58.1239 72.8159 58.0508 72.8161C57.9771 72.8161 57.9062 72.8301 57.838 72.8583C57.7699 72.8865 57.7097 72.9269 57.6576 72.979C57.6055 73.0311 57.5651 73.0913 57.5369 73.1595C57.5086 73.2274 57.4946 73.2985 57.4946 73.3723C57.4946 73.446 57.5086 73.5169 57.5369 73.5851C57.5651 73.6532 57.6055 73.7134 57.6576 73.7655C57.7097 73.8176 57.7699 73.8578 57.838 73.886C57.906 73.9142 57.9771 73.9285 58.0508 73.9285ZM55.62 74.3817C55.6938 74.3817 55.7646 74.3674 55.8328 74.3392C55.901 74.311 55.9612 74.2708 56.0133 74.2187C56.065 74.1671 56.106 74.1058 56.1338 74.0383C56.162 73.9703 56.1762 73.8992 56.1762 73.8255C56.1762 73.7517 56.162 73.6806 56.1338 73.6127C56.106 73.5451 56.065 73.4838 56.0133 73.4322C55.9617 73.3804 55.9004 73.3394 55.8328 73.3115C55.7654 73.2834 55.6931 73.2691 55.62 73.2693C55.5463 73.2693 55.4754 73.2833 55.4072 73.3115C55.3391 73.3397 55.2789 73.3801 55.2268 73.4322C55.1747 73.4843 55.1345 73.5445 55.1063 73.6127C55.0781 73.6806 55.0638 73.7517 55.0638 73.8255C55.0638 73.8992 55.0778 73.9701 55.1061 74.0383C55.1345 74.1062 55.1747 74.1666 55.2268 74.2187C55.2789 74.2708 55.3391 74.311 55.4072 74.3392C55.4752 74.3674 55.5463 74.3817 55.62 74.3817ZM50.8202 80.2321C51.1476 80.2322 51.4717 80.1677 51.774 80.0423C52.0765 79.9172 52.3514 79.7336 52.5828 79.502C52.8144 79.2706 52.998 78.9958 53.1231 78.6932C53.2485 78.3909 53.313 78.0668 53.3128 77.7395C53.313 77.4121 53.2485 77.088 53.1231 76.7857C52.998 76.4832 52.8144 76.2083 52.5828 75.9769C52.3514 75.7453 52.0765 75.5617 51.774 75.4366C51.4717 75.3112 51.1476 75.2467 50.8202 75.2469C50.4929 75.2467 50.1688 75.3112 49.8665 75.4366C49.5639 75.5617 49.2891 75.7453 49.0577 75.9769C48.8261 76.2082 48.6425 76.483 48.5174 76.7855C48.3919 77.0879 48.3275 77.4121 48.3276 77.7395C48.3275 78.0668 48.392 78.3909 48.5174 78.6932C48.6425 78.9958 48.8261 79.2706 49.0577 79.502C49.289 79.7336 49.5638 79.9172 49.8662 80.0423C50.1687 80.1678 50.4929 80.2322 50.8202 80.2321Z" fill="#C2A576"/>
<path d="M18.3958 48.9612C18.742 48.9614 19.0849 48.8932 19.4048 48.7606C19.7248 48.6282 20.0155 48.434 20.2603 48.1889C20.5053 47.9442 20.6996 47.6534 20.8319 47.3334C20.9646 47.0136 21.0327 46.6707 21.0326 46.3244C21.0327 45.9782 20.9646 45.6353 20.8319 45.3155C20.6996 44.9954 20.5053 44.7047 20.2603 44.4599C20.0155 44.2149 19.7248 44.0207 19.4048 43.8883C19.0849 43.7556 18.742 43.6875 18.3958 43.6876C18.0495 43.6875 17.7066 43.7556 17.3868 43.8883C17.0668 44.0206 16.776 44.2149 16.5313 44.4599C16.2863 44.7047 16.092 44.9954 15.9596 45.3155C15.827 45.6353 15.7588 45.9782 15.759 46.3244C15.7588 46.6707 15.827 47.0136 15.9596 47.3334C16.092 47.6534 16.2863 47.9442 16.5313 48.1889C16.776 48.434 17.0668 48.6282 17.3868 48.7606C17.7066 48.8932 18.0495 48.9614 18.3958 48.9612Z" fill="#9D432A"/>
<path d="M21.3004 46.3244C21.3004 45.2944 20.7442 44.285 19.776 43.77C18.3546 43.0078 16.583 43.5228 15.8208 44.9236C15.0586 46.3244 15.5736 48.096 16.9744 48.8788C18.3752 49.641 20.1674 49.126 20.9296 47.7252C21.1974 47.272 21.3004 46.7982 21.3004 46.3244ZM16.0268 46.3038C16.0268 45.9124 16.1298 45.521 16.3152 45.1914C16.6242 44.6352 17.1186 44.2438 17.716 44.0584C18.3134 43.873 18.952 43.9554 19.5082 44.2438C20.6412 44.8618 21.0738 46.3038 20.4558 47.4368C19.8378 48.5698 18.3958 49.0024 17.2628 48.3844C16.7066 48.0754 16.3152 47.581 16.1298 46.9836C16.068 46.757 16.0268 46.5304 16.0268 46.3038Z" fill="#9D432A"/>
</svg>
