<svg width="18" height="20" viewBox="0 0 18 20" fill="none" xmlns="http://www.w3.org/2000/svg">
<path fill-rule="evenodd" clip-rule="evenodd" d="M0.00111721 14.3758C0.00111721 14.5415 0.0669652 14.7005 0.184175 14.8177C0.301386 14.9349 0.460357 15.0008 0.626117 15.0008H15.3674L11.4336 18.9333C11.3163 19.0506 11.2503 19.2098 11.2503 19.3758C11.2503 19.5418 11.3163 19.7009 11.4336 19.8183C11.551 19.9356 11.7101 20.0016 11.8761 20.0016C12.0421 20.0016 12.2013 19.9356 12.3186 19.8183L17.3186 14.8183C17.3768 14.7602 17.423 14.6913 17.4545 14.6153C17.486 14.5394 17.5022 14.458 17.5022 14.3758C17.5022 14.2936 17.486 14.2122 17.4545 14.1362C17.423 14.0603 17.3768 13.9913 17.3186 13.9333L12.3186 8.93329C12.2013 8.81593 12.0421 8.75 11.8761 8.75C11.7101 8.75 11.551 8.81593 11.4336 8.93329C11.3163 9.05065 11.2503 9.20982 11.2503 9.37579C11.2503 9.54176 11.3163 9.70093 11.4336 9.81829L15.3674 13.7508H0.626117C0.460357 13.7508 0.301386 13.8166 0.184175 13.9338C0.0669652 14.0511 0.00111721 14.21 0.00111721 14.3758ZM17.5011 5.62579C17.5011 5.79155 17.4353 5.95052 17.3181 6.06773C17.2008 6.18494 17.0419 6.25079 16.8761 6.25079H2.13487L6.06862 10.1833C6.12673 10.2414 6.17282 10.3104 6.20427 10.3863C6.23572 10.4622 6.25191 10.5436 6.25191 10.6258C6.25191 10.708 6.23572 10.7893 6.20427 10.8653C6.17282 10.9412 6.12673 11.0102 6.06862 11.0683C6.01051 11.1264 5.94152 11.1725 5.8656 11.2039C5.78967 11.2354 5.7083 11.2516 5.62612 11.2516C5.54394 11.2516 5.46256 11.2354 5.38664 11.2039C5.31071 11.1725 5.24173 11.1264 5.18362 11.0683L0.183617 6.06829C0.125413 6.01023 0.0792346 5.94126 0.0477266 5.86533C0.0162185 5.7894 0 5.708 0 5.62579C0 5.54358 0.0162185 5.46218 0.0477266 5.38625C0.0792346 5.31032 0.125413 5.24135 0.183617 5.18329L5.18362 0.183289C5.30097 0.0659312 5.46015 0 5.62612 0C5.79209 0 5.95126 0.0659312 6.06862 0.183289C6.18598 0.300648 6.25191 0.45982 6.25191 0.625789C6.25191 0.791759 6.18598 0.950931 6.06862 1.06829L2.13487 5.00079H16.8761C17.0419 5.00079 17.2008 5.06664 17.3181 5.18385C17.4353 5.30106 17.5011 5.46003 17.5011 5.62579Z" fill="white"/>
</svg>
