<svg width="14" height="16" viewBox="0 0 14 16" fill="none" xmlns="http://www.w3.org/2000/svg">
<path d="M10 1.5V2.5H13.5C13.6326 2.5 13.7598 2.55268 13.8536 2.64645C13.9473 2.74021 14 2.86739 14 3C14 3.13261 13.9473 3.25979 13.8536 3.35355C13.7598 3.44732 13.6326 3.5 13.5 3.5H12.962L12.109 14.16C12.0688 14.6612 11.8412 15.1289 11.4717 15.4698C11.1022 15.8108 10.6178 16.0001 10.115 16H3.885C3.38219 16.0001 2.8978 15.8108 2.52827 15.4698C2.15875 15.1289 1.93122 14.6612 1.891 14.16L1.038 3.5H0.5C0.367392 3.5 0.240215 3.44732 0.146447 3.35355C0.0526784 3.25979 0 3.13261 0 3C0 2.86739 0.0526784 2.74021 0.146447 2.64645C0.240215 2.55268 0.367392 2.5 0.5 2.5H4V1.5C4 1.10218 4.15804 0.720644 4.43934 0.43934C4.72064 0.158035 5.10218 0 5.5 0L8.5 0C8.89782 0 9.27936 0.158035 9.56066 0.43934C9.84196 0.720644 10 1.10218 10 1.5ZM5 1.5V2.5H9V1.5C9 1.36739 8.94732 1.24021 8.85355 1.14645C8.75979 1.05268 8.63261 1 8.5 1H5.5C5.36739 1 5.24021 1.05268 5.14645 1.14645C5.05268 1.24021 5 1.36739 5 1.5ZM3.5 5.029L4 13.529C4.00267 13.5954 4.01857 13.6607 4.04676 13.7209C4.07495 13.7811 4.11488 13.8351 4.16419 13.8797C4.21351 13.9244 4.27123 13.9587 4.33397 13.9807C4.39672 14.0027 4.46322 14.012 4.5296 14.008C4.59598 14.004 4.6609 13.9868 4.72055 13.9575C4.7802 13.9281 4.8334 13.8871 4.87701 13.8369C4.92063 13.7867 4.9538 13.7283 4.97457 13.6651C4.99535 13.602 5.00331 13.5353 4.998 13.469L4.498 4.969C4.49533 4.90255 4.47943 4.83731 4.45124 4.77708C4.42305 4.71686 4.38312 4.66286 4.33381 4.61825C4.28449 4.57365 4.22677 4.53932 4.16403 4.5173C4.10128 4.49527 4.03478 4.48598 3.9684 4.48997C3.90202 4.49396 3.8371 4.51115 3.77745 4.54054C3.7178 4.56992 3.6646 4.61091 3.62099 4.66111C3.57737 4.7113 3.5442 4.76969 3.52343 4.83286C3.50265 4.89603 3.49469 4.96271 3.5 5.029ZM10.03 4.501C9.89767 4.49335 9.76771 4.53856 9.6687 4.6267C9.56969 4.71483 9.50973 4.83867 9.502 4.971L9.002 13.471C8.99771 13.6014 9.04453 13.7282 9.13247 13.8246C9.22041 13.9209 9.34251 13.979 9.47272 13.9866C9.60293 13.9942 9.73095 13.9506 9.82945 13.8651C9.92796 13.7796 9.98916 13.659 10 13.529L10.5 5.029C10.5076 4.89667 10.4624 4.76671 10.3743 4.6677C10.2862 4.56869 10.1623 4.50873 10.03 4.501ZM7 4.5C6.86739 4.5 6.74021 4.55268 6.64645 4.64645C6.55268 4.74021 6.5 4.86739 6.5 5V13.5C6.5 13.6326 6.55268 13.7598 6.64645 13.8536C6.74021 13.9473 6.86739 14 7 14C7.13261 14 7.25979 13.9473 7.35355 13.8536C7.44732 13.7598 7.5 13.6326 7.5 13.5V5C7.5 4.86739 7.44732 4.74021 7.35355 4.64645C7.25979 4.55268 7.13261 4.5 7 4.5Z" fill="white"/>
</svg>
